<?xml version="1.0" standalone="no"?>
<!DOCTYPE svg PUBLIC "-//W3C//DTD SVG 20010904//EN"
 "http://www.w3.org/TR/2001/REC-SVG-20010904/DTD/svg10.dtd">
<svg version="1.0" xmlns="http://www.w3.org/2000/svg"
 width="7730.000000pt" height="7730.000000pt" viewBox="0 0 7730.000000 7730.000000"
 preserveAspectRatio="xMidYMid meet">

<g transform="translate(0.000000,7730.000000) scale(0.100000,-0.100000)"
fill="#000000" stroke="none">
<path d="M39170 65284 c-255 -7 -716 -25 -890 -35 -185 -10 -339 -21 -805 -58
-137 -11 -450 -32 -695 -46 -1242 -70 -1494 -87 -1910 -125 -1670 -155 -2744
-468 -3465 -1009 -187 -141 -392 -345 -434 -434 -72 -152 -80 -285 -21 -403
47 -96 138 -186 345 -342 196 -148 333 -262 380 -315 l30 -35 85 46 c455 247
936 481 1380 672 190 82 539 223 655 265 28 10 91 49 140 85 211 156 342 221
545 270 78 19 127 23 275 25 174 2 184 3 300 38 927 276 2092 476 3180 547
1559 101 3201 -62 4750 -471 559 -148 1329 -403 1774 -588 41 -17 82 -31 92
-31 53 0 563 196 754 290 152 75 226 126 263 180 21 31 23 43 18 99 -32 354
-552 639 -1741 955 -859 228 -1777 344 -3210 406 -232 11 -1562 21 -1795 14z"/>
<path d="M38690 64329 c-958 -36 -1939 -169 -2879 -390 -217 -52 -623 -157
-630 -165 -6 -6 -5 -6 88 -48 180 -81 333 -189 502 -356 69 -69 151 -156 181
-195 168 -212 325 -501 488 -899 l57 -139 94 3 c52 1 106 3 122 5 24 1 38 19
110 136 399 647 865 1187 1317 1525 375 281 757 447 1149 499 139 19 401 19
543 0 612 -80 1206 -424 1804 -1045 170 -176 401 -447 529 -622 l20 -27 195
39 c107 21 325 64 485 95 360 70 487 102 795 204 135 44 408 130 607 191 199
60 374 115 390 121 l28 11 -35 14 c-88 38 -455 173 -649 241 -1693 585 -3561
868 -5311 802z"/>
<path d="M39297 64214 c-401 -62 -791 -245 -1172 -550 -99 -79 -417 -387 -506
-489 -166 -191 -322 -396 -482 -631 -118 -174 -251 -384 -245 -388 2 -1 190 1
418 5 228 3 498 5 600 3 102 -2 268 -5 370 -5 170 -2 337 -8 670 -24 513 -25
1277 -95 1800 -164 l135 -18 121 35 c108 31 124 38 140 66 10 17 54 68 98 114
163 170 396 292 744 392 l73 21 -33 46 c-150 209 -390 484 -620 708 -528 516
-1045 803 -1583 880 -125 18 -410 18 -528 -1z"/>
<path d="M33365 63131 c-340 -146 -562 -249 -870 -403 -196 -98 -671 -347
-693 -363 -1 -1 18 -44 43 -96 24 -52 52 -129 61 -171 19 -86 21 -88 114 -88
173 1 376 60 535 157 217 133 416 323 790 758 33 39 74 86 90 105 17 19 57 64
90 100 70 76 100 110 94 109 -2 0 -116 -49 -254 -108z"/>
<path d="M21220 58439 c-421 -25 -981 -129 -1417 -262 -121 -37 -116 -34 -290
-193 l-88 -81 -195 43 c-392 87 -819 156 -1195 194 -609 60 -1272 65 -1875 14
-2297 -194 -4367 -1181 -5610 -2674 -665 -800 -1058 -1703 -1162 -2675 -17
-159 -17 -721 0 -880 156 -1444 947 -2733 2292 -3735 1196 -890 2751 -1458
4405 -1609 663 -61 1416 -57 2020 9 1119 124 2162 423 3085 885 l105 53 420
-74 c458 -81 1644 -296 2063 -375 144 -27 277 -49 295 -49 91 0 180 59 223
146 52 107 58 84 -239 874 -146 388 -300 795 -342 905 -42 110 -91 242 -110
293 l-34 94 53 67 c126 158 290 401 411 611 739 1281 846 2754 298 4084 -331
805 -902 1564 -1635 2175 -69 58 -125 108 -122 112 11 18 521 462 709 618 116
96 218 182 228 191 18 16 14 25 -91 228 -168 322 -244 422 -447 595 -85 71
-181 131 -320 198 -372 180 -852 253 -1435 218z m294 -4885 c194 -32 342 -103
470 -224 212 -202 305 -465 306 -865 0 -450 -141 -770 -418 -950 -167 -108
-349 -154 -602 -155 -313 0 -541 77 -717 243 -208 198 -299 441 -308 827 -6
272 29 460 119 645 63 127 123 205 221 288 211 178 569 252 929 191z m-9304
-434 l0 -420 420 0 420 0 0 420 0 420 235 0 235 0 0 -1075 -1 -1075 -234 0
-235 0 0 460 0 460 -420 0 -420 0 0 -460 0 -460 -230 0 -230 0 0 1075 0 1075
230 0 230 0 0 -420z m3390 244 c-1 -97 -4 -183 -7 -190 -4 -12 -74 -14 -394
-14 l-389 0 0 -230 0 -230 365 0 365 0 0 -190 0 -190 -23 -5 c-13 -4 -177 -5
-365 -3 l-342 3 0 -272 0 -273 393 -2 392 -3 0 -185 0 -185 -622 -3 -623 -2 0
1075 0 1075 625 0 626 0 -1 -176z m1200 -709 l0 -885 435 0 435 0 0 -190 0
-190 -664 0 -664 0 -5 21 c-8 32 -9 867 -1 1542 l7 587 229 0 228 0 0 -885z
m2000 0 l0 -885 435 0 435 0 0 -190 0 -190 -667 2 -668 3 -3 1073 -3 1072 235
0 236 0 0 -885z"/>
<path d="M21133 53175 c-176 -38 -302 -163 -361 -357 -64 -206 -57 -558 14
-748 82 -217 236 -320 479 -320 299 0 456 142 526 475 8 36 13 132 13 240 0
147 -4 198 -21 279 -49 222 -155 359 -324 416 -80 28 -236 34 -326 15z"/>
<path d="M56700 55774 c-25 -7 -46 -13 -47 -14 -2 -2 -6 -3 -10 -5 -25 -6 -50
-21 -61 -34 -11 -13 -12 -13 -6 -1 5 10 1 9 -14 -4 -12 -10 -19 -22 -17 -26 3
-4 -3 -7 -13 -6 -10 0 -16 -5 -14 -14 2 -8 0 -12 -4 -8 -8 9 -34 -9 -34 -23 0
-12 37 -11 45 1 7 11 35 2 35 -12 0 -6 -6 -6 -14 1 -11 9 -16 9 -21 0 -4 -6
-19 -9 -36 -5 -24 5 -32 -1 -63 -44 -22 -31 -33 -56 -30 -67 5 -14 4 -15 -4
-4 -8 11 -13 8 -27 -15 -10 -16 -28 -45 -41 -65 -39 -63 -54 -105 -41 -119 9
-10 9 -11 0 -6 -16 9 -32 -23 -35 -71 -1 -7 -4 -13 -8 -13 -6 0 -8 -8 -11 -47
-1 -10 -6 -24 -11 -30 -6 -7 -8 -20 -4 -28 3 -8 2 -15 -3 -15 -5 0 -11 -11
-13 -25 -3 -13 -1 -22 3 -19 5 3 9 -1 10 -8 1 -7 5 -2 9 12 l8 25 1 -26 c1
-33 -8 -42 -27 -26 -13 10 -14 8 -10 -15 3 -16 2 -28 -1 -28 -4 0 -7 -15 -6
-32 0 -18 -4 -36 -10 -40 -6 -5 -5 -11 4 -17 7 -5 9 -11 4 -14 -15 -9 -17 -51
-16 -302 0 -330 -3 -301 35 -337 22 -21 25 -25 8 -14 -29 19 -43 21 -37 4 2
-7 9 -13 15 -13 7 0 11 -4 10 -10 -2 -5 -7 -9 -12 -7 -5 2 -5 -23 -1 -55 4
-32 7 -70 6 -85 -1 -21 2 -26 14 -22 13 5 14 2 5 -22 -6 -15 -8 -41 -4 -58 7
-28 9 -42 13 -99 0 -10 5 -16 9 -13 4 2 9 -5 9 -17 2 -17 0 -19 -7 -7 -11 16
-8 -9 13 -110 6 -30 10 -61 8 -69 -1 -7 1 -11 6 -8 4 3 9 -11 9 -31 3 -55 7
-82 15 -82 4 0 6 -11 4 -25 -1 -14 2 -25 7 -25 6 0 8 -7 4 -15 -3 -8 0 -15 7
-15 8 0 6 -4 -3 -10 -8 -5 -10 -10 -4 -10 7 0 9 -11 6 -25 -2 -14 0 -25 4 -25
5 0 10 -19 11 -41 2 -23 7 -47 13 -54 6 -7 10 -17 9 -21 -5 -28 2 -64 11 -59
7 4 9 -3 6 -19 -3 -14 0 -28 5 -31 5 -4 9 -1 9 6 0 7 3 9 6 6 4 -4 1 -13 -5
-21 -9 -11 -10 -20 -1 -36 6 -11 8 -25 5 -30 -3 -6 -2 -10 4 -10 5 0 12 8 14
18 4 13 5 12 6 -5 0 -12 -4 -23 -10 -25 -11 -4 -4 -42 18 -98 4 -8 8 -24 10
-35 4 -28 11 -60 13 -60 1 0 4 -13 6 -30 3 -16 10 -35 16 -42 6 -8 8 -16 5
-19 -7 -7 21 -104 35 -121 6 -7 8 -13 5 -13 -3 0 -1 -17 4 -37 5 -21 12 -49
15 -62 3 -14 8 -29 12 -35 4 -6 7 -14 8 -18 1 -5 2 -11 3 -15 1 -5 6 -1 12 7
9 12 10 11 4 -5 -8 -23 -8 -24 -6 -48 0 -10 5 -16 10 -13 5 3 11 -1 15 -9 3
-8 1 -15 -5 -15 -6 0 -7 -5 -2 -12 8 -14 10 -19 12 -44 0 -8 4 -13 9 -11 4 3
8 -8 9 -23 4 -59 34 -140 51 -140 13 0 14 -2 4 -9 -9 -5 -11 -17 -7 -34 4 -15
11 -25 15 -22 5 3 6 -5 2 -17 -3 -13 -1 -19 5 -15 6 4 10 -6 11 -24 0 -17 6
-37 13 -45 6 -8 9 -14 6 -14 -3 0 -1 -13 4 -30 6 -17 18 -30 27 -30 13 0 14
-2 4 -9 -11 -7 -11 -16 -1 -50 9 -29 15 -38 21 -29 6 9 8 5 6 -12 -3 -29 32
-140 44 -140 4 0 5 -7 2 -15 -4 -8 -1 -15 6 -15 6 0 9 -3 7 -7 -3 -5 0 -19 6
-33 5 -14 12 -34 14 -44 2 -11 8 -25 13 -31 5 -7 7 -15 3 -18 -3 -4 2 -7 13
-7 12 0 15 -3 8 -8 -8 -5 -3 -22 16 -56 25 -43 29 -46 35 -26 4 12 9 20 11 17
3 -2 0 -16 -5 -30 -7 -19 -6 -28 4 -37 8 -7 27 -37 41 -67 15 -30 37 -59 48
-63 12 -5 15 -9 9 -9 -7 -1 -13 -6 -13 -12 0 -5 4 -8 9 -5 5 3 8 -2 7 -12 0
-9 5 -16 12 -14 8 1 11 -2 7 -8 -3 -6 8 -36 26 -68 17 -31 43 -79 57 -105 19
-37 27 -46 34 -35 8 10 8 9 4 -4 -3 -10 -3 -25 1 -34 5 -13 8 -13 15 -2 8 10
9 9 5 -4 -4 -10 19 -63 52 -125 32 -59 113 -216 180 -348 109 -213 157 -298
138 -242 -4 9 -3 17 2 17 5 0 11 -11 13 -24 3 -17 1 -23 -8 -19 -8 3 -4 -14
11 -46 19 -39 29 -49 42 -45 14 5 15 4 4 -4 -12 -9 -12 -15 -1 -42 7 -17 16
-27 19 -21 3 5 12 -2 18 -15 10 -22 10 -24 -3 -13 -8 7 1 -23 21 -66 19 -42
35 -79 35 -82 0 -2 5 -1 12 3 6 4 8 3 5 -4 -4 -5 -4 -18 -1 -27 6 -13 9 -14
16 -3 6 9 7 6 3 -8 -5 -21 31 -114 45 -114 9 0 5 53 -4 68 -4 7 -1 12 7 12 9
0 14 -12 14 -32 0 -18 2 -40 4 -48 2 -8 -2 -14 -9 -12 -8 1 -12 -1 -9 -5 2 -5
7 -17 11 -28 6 -16 9 -17 17 -5 8 12 9 9 7 -11 -3 -25 120 -324 129 -315 3 2
-1 15 -8 28 -11 20 -10 21 3 11 8 -7 21 -31 28 -53 l13 -40 121 -2 121 -2
-130 -6 c-71 -4 179 -6 558 -5 378 2 687 -1 687 -6 0 -9 1784 -19 1835 -9 6 1
242 -1 525 -3 283 -2 434 -1 335 2 l-180 7 179 2 c147 2 182 -1 196 -13 14
-12 79 -15 423 -15 396 -1 407 -1 397 -20 -15 -27 -12 -32 10 -20 11 6 20 7
20 3 0 -4 5 -1 10 7 7 12 9 10 7 -8 -1 -13 -5 -18 -11 -12 -6 6 -16 5 -27 0
-11 -7 -20 -7 -24 0 -8 14 -395 14 -395 0 0 -5 -5 -10 -11 -10 -5 0 -7 5 -4
10 5 7 -213 9 -687 5 -676 -5 -1418 -14 -1428 -16 -3 -1 -259 -3 -570 -4 -311
-2 -629 -4 -707 -5 -78 -1 -145 0 -150 2 -4 3 -42 2 -83 -2 -41 -4 -280 -5
-530 -4 -250 2 -447 1 -437 -2 19 -6 23 -20 6 -26 -5 -2 -7 -11 -3 -22 5 -14
9 -15 16 -4 7 9 8 6 5 -10 -7 -31 24 -100 47 -106 16 -4 17 -7 6 -21 -10 -13
-11 -18 -1 -28 7 -7 12 -7 11 -2 -6 29 2 35 50 35 38 0 50 -4 50 -15 0 -11 11
-15 40 -15 33 0 40 -3 40 -19 0 -23 17 -31 45 -21 11 4 29 3 40 -1 l20 -9 -20
2 c-11 0 -27 -2 -35 -5 -8 -4 -35 -8 -60 -9 -25 -2 -47 -5 -50 -8 -10 -11
-256 -57 -1177 -222 l-123 -21 -188 91 c-1660 802 -3665 1086 -5615 796 -1065
-158 -2127 -510 -3005 -996 -1015 -562 -1818 -1281 -2377 -2128 -421 -638
-682 -1326 -775 -2040 -117 -906 43 -1826 463 -2665 666 -1332 1969 -2449
3628 -3109 1618 -643 3466 -826 5273 -520 1035 175 2086 545 2926 1031 281
163 662 419 865 582 158 126 374 309 440 372 39 36 88 82 109 100 22 19 107
106 188 193 271 289 460 526 668 839 37 56 49 67 68 64 29 -5 37 7 15 24 -12
10 -14 10 -9 2 4 -7 2 -13 -3 -13 -15 0 -14 16 2 32 6 7 22 31 34 53 13 22 28
39 34 37 6 -1 8 2 4 7 -6 10 21 71 31 71 3 0 2 -5 -2 -12 -4 -6 -3 -8 4 -5 5
4 8 15 6 25 -3 9 4 27 15 38 11 12 18 24 16 26 -3 2 18 43 45 92 27 48 54 103
60 122 6 19 15 32 20 29 5 -3 12 0 16 6 4 8 3 9 -4 5 -17 -10 -15 10 3 27 8 8
11 17 8 21 -4 3 -1 6 5 6 7 0 11 3 10 8 -4 18 15 61 25 55 6 -3 7 -1 3 5 -3 6
2 25 13 43 11 18 18 36 16 40 -3 4 5 9 16 12 16 4 19 2 15 -10 -6 -13 -4 -14
9 -3 15 12 15 14 1 22 -9 5 -21 6 -28 2 -7 -5 -8 -3 -2 7 5 8 9 16 9 19 3 23
18 49 26 45 5 -3 6 2 2 11 -5 13 -3 15 8 9 12 -8 12 -6 0 8 -12 15 -11 17 5
18 11 0 14 3 8 5 -17 7 7 76 25 69 11 -4 12 -3 1 10 -7 8 -8 15 -2 15 5 0 10
6 9 13 -1 38 4 49 19 43 14 -5 15 -4 5 8 -11 13 -3 44 36 146 4 8 5 19 4 23 0
4 5 20 14 36 8 16 11 31 8 35 -4 3 -2 6 3 6 5 0 11 10 12 23 5 37 9 62 12 62
1 0 3 9 4 20 4 30 28 129 34 140 7 11 14 52 13 78 0 9 4 17 9 17 5 0 7 7 4 15
-4 8 -3 23 1 33 4 9 9 34 11 56 1 21 6 46 10 55 7 17 10 35 19 126 5 56 11 93
15 105 2 3 4 23 5 45 1 22 3 42 4 45 1 4 5 62 13 225 2 35 7 49 16 47 8 -1 11
2 7 8 -3 6 -11 8 -16 5 -15 -10 -12 308 4 324 10 11 10 13 0 7 -9 -5 -13 3
-13 27 0 19 -3 56 -7 82 -5 37 -3 46 6 40 10 -6 11 -3 3 11 -14 27 -18 67 -8
83 6 10 5 12 -2 7 -8 -5 -12 3 -12 23 0 17 3 30 8 29 4 -2 8 0 10 5 5 16 1 27
-9 27 -8 0 -7 -6 2 -17 13 -16 12 -17 -2 -5 -10 8 -16 25 -15 43 1 17 -1 32
-4 34 -4 2 -6 22 -5 45 1 22 -1 40 -5 40 -4 0 -13 39 -20 88 -6 48 -14 96 -16
107 -3 11 -6 31 -8 45 -1 14 -6 32 -10 41 -4 9 -6 20 -5 25 1 5 -2 18 -6 28
-6 13 -4 21 4 24 9 3 8 7 -4 16 -9 6 -17 23 -19 36 -1 14 -6 32 -10 41 -4 9
-6 20 -4 25 1 5 -3 18 -8 29 -6 11 -14 32 -18 47 -5 22 -3 26 9 22 8 -4 15 -1
15 5 0 6 -3 10 -7 10 -18 -3 -36 1 -31 7 4 3 0 21 -8 40 -8 19 -11 34 -8 34 4
0 2 6 -4 13 -6 6 -13 30 -18 51 -4 22 -13 51 -20 65 -9 17 -10 27 -3 32 7 4 5
8 -5 12 -8 3 -20 25 -26 49 -7 24 -18 57 -25 73 -14 33 -27 66 -30 78 -2 4 -4
10 -5 15 -1 4 -2 10 -1 15 0 4 -4 7 -10 7 -5 0 -7 5 -3 11 3 6 2 14 -3 18 -9
6 -80 157 -85 182 -2 8 -7 17 -13 21 -6 5 -5 8 4 8 8 0 5 7 -8 18 -12 9 -23
24 -24 34 -2 9 -9 23 -16 32 -7 9 -10 16 -5 16 5 0 4 4 -2 8 -6 4 -47 72 -92
152 -148 263 -285 470 -493 747 l-32 42 33 88 c18 48 37 99 42 113 9 24 10 24
24 6 8 -11 14 -15 14 -9 0 7 -4 15 -10 18 -14 9 -12 31 5 48 8 8 11 17 8 20
-3 4 2 18 11 32 9 14 14 25 11 25 -3 0 -1 9 5 20 6 11 16 17 22 14 7 -5 8 -2
4 5 -12 18 3 83 16 75 6 -4 8 -3 5 3 -9 14 12 75 23 68 5 -3 7 5 4 19 -4 26
19 55 31 36 9 -15 22 -12 29 6 5 14 4 15 -9 4 -14 -12 -19 -7 -16 13 1 5 -4 5
-10 1 -9 -5 -10 -2 -4 12 4 10 19 51 33 89 14 39 28 72 31 75 3 3 8 14 9 25 7
39 32 86 42 80 5 -3 10 -2 10 4 0 5 -4 11 -9 13 -5 2 -2 19 6 38 9 19 17 41
19 48 6 30 14 43 24 37 5 -3 7 0 4 9 -5 13 25 111 44 140 3 6 7 17 8 25 3 16
42 119 55 143 5 10 9 22 9 28 0 17 35 46 51 42 10 -3 11 -1 2 5 -7 5 -11 19
-8 31 3 16 0 20 -8 15 -7 -4 -4 5 6 20 9 15 15 27 12 27 -3 0 -1 9 5 19 8 16
17 18 52 14 24 -3 45 -10 46 -14 2 -5 21 -9 43 -9 28 0 39 -4 39 -15 0 -11 11
-15 40 -15 29 0 40 -4 40 -15 0 -11 11 -15 40 -15 22 0 40 -4 40 -10 0 -5 18
-10 40 -10 22 0 40 -4 40 -10 0 -5 18 -10 40 -10 36 0 40 -3 40 -24 0 -23 4
-24 80 -31 80 -7 80 -7 80 -36 l0 -29 80 0 c79 0 80 0 80 -25 0 -22 4 -25 40
-25 29 0 40 -4 40 -15 0 -11 11 -15 40 -15 22 0 40 -4 40 -10 0 -5 18 -10 40
-10 29 0 40 -4 40 -15 0 -11 11 -15 40 -15 29 0 40 -4 40 -15 0 -11 11 -15 40
-15 22 0 40 -4 40 -10 0 -5 18 -10 40 -10 22 0 40 -4 40 -10 0 -5 18 -10 40
-10 36 0 40 -3 40 -24 0 -23 4 -24 80 -31 80 -7 80 -7 80 -36 l0 -29 80 0 c79
0 80 0 80 -25 0 -22 4 -25 40 -25 29 0 40 -4 40 -15 0 -11 11 -15 40 -15 22 0
40 -4 40 -10 0 -5 18 -10 40 -10 29 0 40 -4 40 -15 0 -11 11 -15 40 -15 29 0
40 -4 40 -15 0 -11 11 -15 40 -15 22 0 40 -4 40 -10 0 -5 18 -10 40 -10 37 0
40 -2 40 -29 l0 -28 120 -13 120 -13 0 -28 0 -29 80 0 c79 0 80 0 80 -25 0
-22 4 -25 40 -25 29 0 40 -4 40 -15 0 -11 11 -15 40 -15 22 0 40 -4 40 -10 0
-5 18 -10 40 -10 29 0 40 -4 40 -15 0 -11 11 -15 40 -15 29 0 40 -4 40 -15 0
-11 11 -15 40 -15 22 0 40 -4 40 -10 0 -5 18 -10 40 -10 37 0 40 -2 40 -29 l0
-28 120 -13 120 -13 0 -28 0 -29 80 0 c79 0 80 0 80 -25 0 -22 4 -25 40 -25
29 0 40 -4 40 -15 0 -11 11 -15 40 -15 22 0 40 -4 40 -10 0 -5 18 -10 40 -10
29 0 40 -4 40 -15 0 -11 11 -15 40 -15 29 0 40 -4 40 -15 0 -11 11 -15 40 -15
22 0 40 -4 40 -10 0 -5 18 -10 40 -10 37 0 40 -2 40 -29 0 -28 1 -29 75 -36
41 -3 79 -4 84 -1 5 3 12 0 15 -6 3 -7 4 -1 1 14 -3 15 -1 30 5 33 10 6 8 40
-3 51 -4 4 -7 17 -6 28 0 20 1 20 9 -1 17 -42 19 -35 22 100 1 31 5 57 9 57 3
0 7 97 7 215 0 118 -3 215 -7 215 -4 0 -5 14 -3 31 3 18 1 29 -4 26 -5 -3 -9
23 -8 56 1 71 -10 111 -28 102 -7 -4 -5 0 4 7 15 13 15 18 3 41 -8 15 -10 27
-6 27 8 0 -3 77 -16 110 -3 8 -7 28 -9 43 -2 16 -8 36 -14 46 -5 10 -7 21 -3
24 3 4 0 13 -6 21 -7 8 -11 19 -8 23 3 4 0 19 -6 33 -5 14 -12 36 -14 50 -2
14 -9 30 -16 35 -7 6 -12 20 -11 33 1 12 -2 22 -6 22 -5 0 -7 8 -6 18 4 22
-14 63 -34 79 -10 8 -11 12 -3 13 7 0 10 7 6 16 -5 13 -7 13 -15 2 -5 -8 -6
-3 -2 15 5 21 2 27 -10 27 -10 0 -13 6 -10 15 4 8 1 21 -5 29 -7 8 -11 18 -9
22 4 13 -29 91 -42 99 -6 3 -8 11 -5 16 4 5 1 9 -5 9 -6 0 -8 5 -5 10 3 6 1
10 -4 10 -6 0 -10 3 -9 8 5 17 -24 79 -37 79 -11 0 -12 -4 -4 -14 8 -9 8 -13
0 -13 -12 0 -12 1 -16 38 -2 19 0 20 13 10 13 -11 14 -10 3 10 -6 12 -16 22
-22 22 -6 0 -7 5 -4 10 3 6 1 10 -4 10 -6 0 -11 6 -11 14 0 7 -10 21 -22 30
-18 12 -19 14 -4 9 16 -5 15 0 -9 43 -26 45 -60 91 -40 54 5 -9 4 -12 -1 -7
-5 5 -9 12 -9 15 0 4 -6 22 -14 40 -9 23 -19 31 -29 27 -12 -4 -13 -3 -2 10 8
10 9 15 1 15 -6 0 -11 7 -11 15 0 8 -4 15 -9 15 -5 0 -11 10 -14 21 -4 14 -11
20 -21 16 -8 -3 -18 -2 -21 4 -4 5 -3 8 2 7 4 -2 9 0 10 4 4 13 -9 38 -19 38
-6 0 -7 -7 -4 -16 3 -8 2 -12 -4 -9 -6 3 -7 18 -4 33 4 15 3 24 -1 20 -7 -7
-48 46 -50 64 0 4 -15 24 -33 45 -17 21 -48 60 -68 86 -22 29 -42 46 -52 45
-10 -2 -16 3 -14 11 4 20 -18 43 -32 32 -8 -6 -17 -6 -26 1 -12 8 -12 9 2 4
24 -7 34 13 15 32 -12 12 -19 13 -30 4 -13 -12 -27 -7 -27 9 0 5 7 6 15 3 21
-8 19 2 -5 26 -21 21 -35 27 -25 11 3 -5 -7 -8 -21 -7 -21 2 -28 9 -30 30 -1
14 2 24 7 21 5 -4 9 -2 9 3 0 17 -171 172 -182 166 -7 -4 -8 -2 -4 4 4 6 -6
19 -21 29 -15 10 -56 39 -91 66 -35 26 -72 47 -83 47 -10 0 -19 3 -19 8 0 15
-48 30 -60 18 -8 -8 -9 -6 -5 7 4 9 2 18 -4 18 -11 2 -26 5 -38 9 -5 1 -11 2
-15 1 -5 0 -8 3 -8 8 0 5 -11 11 -25 13 -16 3 -22 1 -19 -6 3 -6 -1 -3 -8 6
-8 9 -25 19 -39 22 -13 3 -41 10 -62 15 -22 5 -39 5 -43 0 -3 -5 -22 -8 -42
-8 l-37 2 40 6 40 7 -30 7 c-16 4 -41 5 -54 2 -14 -2 -29 0 -35 4 -6 5 -56 9
-111 8 -83 -2 -100 -5 -99 -17 1 -17 -32 -25 -41 -9 -3 5 1 6 9 3 9 -4 16 -1
16 6 0 9 -13 11 -52 5 -29 -4 -64 -9 -78 -10 -42 -4 -46 -6 -25 -15 16 -6 14
-8 -13 -7 -23 0 -29 3 -20 9 10 8 9 9 -3 5 -9 -3 -37 -8 -62 -12 -25 -4 -53
-15 -63 -26 -13 -14 -21 -16 -35 -8 -13 7 -26 6 -41 -2 -13 -7 -25 -12 -28
-12 -3 0 -14 -3 -25 -8 -11 -4 -14 -8 -6 -8 8 -1 11 -4 8 -7 -4 -4 -13 -2 -20
5 -15 11 -51 5 -43 -8 3 -4 -11 -5 -30 -3 -23 3 -34 0 -34 -9 0 -7 -3 -10 -6
-6 -3 3 -25 -1 -47 -10 -23 -8 -50 -16 -60 -18 -40 -9 -57 -17 -52 -25 3 -4
-5 -6 -17 -3 -19 4 -20 3 -8 -7 12 -9 10 -10 -12 -6 -17 4 -28 2 -28 -4 0 -6
-8 -10 -17 -9 -10 2 -49 -7 -88 -20 -70 -23 -102 -41 -75 -41 7 0 10 -3 7 -6
-4 -4 -12 -2 -20 4 -15 13 -60 5 -51 -9 3 -5 -4 -10 -15 -10 -12 -1 -24 -2
-28 -4 -5 -1 -21 -5 -38 -9 -16 -4 -41 -12 -55 -18 -14 -7 -28 -12 -32 -14 -5
-1 -9 -2 -10 -3 -2 -2 -16 -4 -32 -6 -16 -2 -32 -9 -36 -16 -4 -6 -12 -9 -18
-5 -6 3 -13 2 -17 -4 -4 -6 -11 -8 -16 -5 -5 4 -9 2 -9 -4 0 -6 -7 -8 -15 -5
-8 3 -20 2 -27 -2 -7 -5 -20 -9 -28 -11 -39 -5 -100 -27 -100 -34 0 -5 -5 -9
-11 -9 -5 0 -7 5 -3 12 5 7 3 8 -7 2 -16 -10 -20 -11 -55 -13 -21 -1 -24 -4
-15 -15 10 -11 7 -14 -14 -12 -14 0 -25 4 -25 8 0 4 -11 3 -24 -2 -13 -5 -26
-6 -29 -3 -3 3 -11 2 -18 -3 -7 -4 -38 -9 -68 -11 -31 -1 -57 -6 -59 -11 -2
-8 -341 -6 -350 2 -10 11 -52 6 -52 -6 0 -6 -7 -3 -16 8 -8 10 -13 14 -10 7 4
-8 -3 -7 -22 3 -16 8 -42 15 -58 16 -16 1 -32 6 -35 11 -3 4 -22 9 -41 10 -20
1 -34 5 -32 8 2 4 -3 10 -12 13 -10 4 -13 2 -8 -7 4 -6 -2 -4 -13 6 -11 9 -23
14 -26 10 -4 -3 -7 -2 -7 4 0 12 -48 35 -60 28 -5 -3 -11 -1 -15 5 -4 6 -11 7
-17 4 -7 -4 -8 -2 -4 5 9 14 -18 25 -61 24 -18 0 -30 4 -27 9 3 5 15 6 27 3
21 -6 22 -6 3 9 -11 9 -25 16 -30 16 -6 0 -21 11 -33 24 -13 13 -38 31 -58 40
-19 9 -38 23 -42 30 -4 7 -21 21 -38 32 -16 10 -32 22 -35 25 -3 4 -23 21 -44
38 -21 17 -35 31 -31 31 4 0 2 7 -5 15 -7 8 -17 12 -23 8 -5 -3 -7 -1 -4 4 4
6 0 16 -8 23 -10 9 -15 9 -15 1 0 -6 -4 -11 -8 -11 -5 0 -8 10 -8 23 1 17 -4
22 -21 21 -24 -1 -32 11 -12 18 7 2 4 10 -7 18 -16 13 -17 13 -9 0 4 -8 4 -12
0 -7 -5 4 -10 14 -11 22 -3 18 -46 74 -57 74 -5 1 -5 -3 -2 -9 3 -6 -1 -7 -9
-4 -9 3 -16 10 -16 16 0 5 5 6 10 3 6 -3 10 -2 10 4 0 5 -8 15 -17 20 -10 6
-15 11 -10 11 7 0 -59 101 -73 110 -4 3 -17 24 -29 48 -12 23 -26 40 -31 37
-5 -3 -7 1 -4 9 3 8 -6 30 -20 49 -14 19 -26 38 -26 43 0 7 -22 54 -47 103 -1
1 -6 0 -12 -4 -7 -4 -8 -12 -2 -24 7 -13 6 -18 -4 -18 -14 0 -16 22 -2 43 8
14 -26 47 -38 37 -4 -5 -5 -2 -1 5 6 11 12 10 27 -4 23 -21 24 -13 2 29 -9 18
-17 40 -18 50 -1 11 -6 22 -11 25 -5 4 -11 16 -12 27 -2 11 -8 23 -14 26 -5 3
-9 9 -9 13 3 24 -1 38 -18 55 -13 13 -16 21 -8 24 9 3 7 10 -4 23 -24 29 -34
48 -21 40 16 -9 15 -6 -5 40 -16 37 -19 45 -22 61 0 4 -6 2 -13 -5 -23 -23
-40 -14 -34 19 2 17 8 34 11 37 4 4 6 0 5 -8 -1 -8 -2 -24 -1 -35 2 -19 2 -19
16 -2 16 22 10 45 -16 67 -10 8 -20 29 -24 45 -4 21 -3 24 3 11 5 -12 11 -16
15 -9 9 14 -2 45 -13 38 -5 -3 -8 5 -8 17 1 13 1 36 0 52 -2 29 -3 29 -17 10
-16 -21 -18 -11 -6 21 5 11 4 34 -1 50 -6 17 -10 40 -9 52 0 12 -4 25 -9 28
-6 4 -7 11 -4 17 5 7 2 8 -6 3 -10 -6 -12 -4 -7 9 4 10 -2 63 -14 119 -11 56
-23 118 -25 137 -3 19 -8 36 -13 38 -4 1 -6 15 -3 31 4 30 -14 75 -27 67 -4
-3 -8 1 -8 9 0 11 3 12 14 3 12 -10 13 -7 7 18 -4 16 -12 35 -18 43 -9 12 -8
13 2 7 11 -7 12 -4 3 12 -6 11 -10 29 -9 39 4 28 -13 142 -21 148 -4 2 -6 20
-5 39 2 20 -1 36 -6 36 -6 0 -10 -4 -10 -10 0 -5 -5 -10 -12 -10 -6 0 -4 7 5
18 21 23 21 41 0 71 -10 15 -11 21 -3 16 10 -6 12 -3 7 16 -4 13 -7 39 -7 57
0 18 -4 31 -8 28 -5 -3 -7 18 -4 46 3 35 1 49 -6 44 -7 -4 -9 6 -6 31 2 22 1
31 -3 21 -5 -10 -9 16 -10 63 -1 43 -5 85 -10 92 -4 6 -6 22 -4 34 3 30 -9 50
-20 32 -6 -10 -9 -10 -9 -2 0 6 4 14 9 18 11 6 4 91 -13 170 -3 11 -5 37 -5
58 -1 21 -4 36 -8 34 -5 -3 -8 9 -9 26 -1 40 -15 139 -21 150 -2 4 -6 22 -9
40 -2 18 -7 46 -11 62 -4 17 -6 36 -4 43 1 6 -2 12 -6 12 -4 0 -9 15 -10 33
-2 32 -40 206 -65 294 -8 27 -15 38 -20 30 -6 -9 -8 -9 -8 0 0 6 4 15 10 18 6
4 5 16 -3 33 -8 15 -12 35 -10 45 3 9 1 17 -4 17 -4 0 -9 17 -11 37 -1 20 -6
39 -10 43 -4 3 -8 12 -9 20 -4 34 -13 64 -21 69 -12 9 -24 43 -12 36 15 -9 12
11 -3 24 -8 6 -18 7 -22 3 -5 -4 -5 -1 -1 6 4 7 12 9 18 6 5 -4 4 4 -3 17 -7
13 -12 31 -11 41 2 9 -2 19 -8 23 -6 3 -8 11 -5 16 4 5 0 12 -8 15 -9 3 -12
14 -9 29 2 14 -3 37 -13 51 -9 15 -12 23 -6 20 17 -11 -20 77 -38 91 -11 8
-12 12 -3 13 6 0 12 5 12 11 0 5 -4 8 -9 5 -5 -3 -18 12 -30 34 -25 48 -21 52
8 8 11 -18 21 -28 21 -21 0 6 -5 15 -10 18 -6 4 -8 10 -5 15 3 5 -4 18 -16 29
-18 17 -25 18 -38 8 -14 -10 -14 -10 -3 5 8 10 20 14 30 11 13 -5 12 -2 -3 13
-12 10 -15 15 -8 10 16 -10 16 -4 2 28 -7 14 -15 23 -19 21 -4 -3 -6 9 -4 26
3 22 0 30 -9 26 -7 -2 -13 4 -14 17 -3 40 -8 61 -19 81 -6 11 -19 44 -28 73
-10 28 -22 52 -26 52 -5 0 -7 7 -4 15 4 8 1 15 -5 15 -6 0 -11 -7 -11 -15 0
-8 -5 -15 -11 -15 -7 0 -5 10 5 25 15 23 14 29 -6 26 -4 0 -4 7 -1 16 5 13 2
15 -13 9 -15 -6 -17 -5 -6 5 18 19 15 32 -5 24 -15 -5 -16 -4 -5 6 14 15 16
33 2 24 -5 -3 -7 0 -5 8 3 7 -6 26 -20 43 -22 26 -30 26 -26 2 2 -14 -17 -8
-22 6 -3 8 2 16 14 19 16 4 17 9 8 35 -6 17 -17 36 -25 43 -7 6 -11 15 -8 20
3 5 -2 12 -10 15 -9 3 -16 12 -16 19 0 29 -42 85 -63 86 -20 0 -20 1 -4 8 18
7 18 8 1 21 -15 12 -16 12 -9 1 5 -9 4 -12 -3 -7 -6 4 -9 13 -5 21 7 20 -14
44 -36 40 -10 -2 -18 3 -18 10 0 8 4 12 9 9 4 -3 8 -1 8 4 0 14 -28 35 -38 29
-4 -3 -14 -2 -21 2 -10 6 -9 10 4 14 10 5 14 3 9 -5 -4 -7 -3 -8 5 -4 16 10 4
26 -20 26 -10 0 -19 5 -19 11 0 5 6 7 13 3 6 -5 -1 7 -17 26 -33 41 -72 64
-88 54 -7 -5 -9 0 -6 13 4 15 -2 25 -22 36 -15 9 -30 14 -34 10 -3 -3 -6 -1
-6 6 0 7 -4 10 -9 7 -5 -4 -11 -2 -13 4 -2 6 -12 12 -23 15 -11 2 -38 9 -60
14 -22 6 -42 10 -45 9 -3 0 -25 -6 -50 -14z m-51 -63 c-15 -5 -22 6 -14 19 6
9 10 9 16 -1 5 -8 4 -15 -2 -18z m229 -6 c-3 -3 -9 2 -12 12 -6 14 -5 15 5 6
7 -7 10 -15 7 -18z m134 -60 c3 0 9 -3 13 -7 4 -3 0 -5 -9 -4 -9 1 -22 8 -29
16 -10 10 -9 11 3 4 8 -5 18 -9 22 -9z m-554 -48 c-1 -2 4 -12 12 -22 14 -17
14 -17 -8 -4 -12 8 -18 15 -12 17 6 2 7 9 3 15 -3 7 -3 9 1 5 4 -3 6 -8 4 -11z
m-23 -47 c-3 -5 -12 -10 -18 -10 -7 0 -6 4 3 10 19 12 23 12 15 0z m45 -6 c0
-2 -7 -4 -15 -4 -8 0 -15 4 -15 10 0 5 7 7 15 4 8 -4 15 -8 15 -10z m-83 -106
c-3 -7 -5 -2 -5 12 0 14 2 19 5 13 2 -7 2 -19 0 -25z m-40 -43 c0 -8 -4 -12
-9 -9 -5 3 -6 10 -3 15 9 13 12 11 12 -6z m-37 -8 c0 -7 -7 -22 -15 -33 -13
-17 -13 -16 -3 14 13 34 18 40 18 19z m905 -9 c5 4 5 1 1 -6 -6 -10 -11 -10
-22 -1 -8 6 -14 14 -14 16 0 3 6 0 13 -6 8 -6 18 -7 22 -3z m18 -43 c-7 -21
-12 -19 -10 4 0 11 5 18 9 15 4 -3 5 -11 1 -19z m-23 1 c0 -3 -4 -8 -10 -11
-5 -3 -10 -1 -10 4 0 6 5 11 10 11 6 0 10 -2 10 -4z m-917 -51 c-3 -9 -8 -14
-10 -11 -3 3 -2 9 2 15 9 16 15 13 8 -4z m-22 -58 c-10 -9 -11 -8 -5 6 3 10 9
15 12 12 3 -3 0 -11 -7 -18z m37 -2 c-3 -3 -9 2 -12 12 -6 14 -5 15 5 6 7 -7
10 -15 7 -18z m-111 -267 c-3 -8 -6 -5 -6 6 -1 11 2 17 5 13 3 -3 4 -12 1 -19z
m16 -48 c3 -11 1 -20 -4 -20 -5 0 -9 9 -9 20 0 11 2 20 4 20 2 0 6 -9 9 -20z
m1247 -51 c0 -5 -4 -9 -8 -9 -5 0 -9 7 -9 15 0 8 4 12 9 9 4 -3 8 -9 8 -15z
m-1243 -31 c-3 -8 -6 -5 -6 6 -1 11 2 17 5 13 3 -3 4 -12 1 -19z m1249 -19 c1
-16 1 -29 0 -27 -1 2 -10 14 -21 27 -11 14 -15 21 -8 18 6 -4 14 -3 18 3 9 15
10 13 11 -21z m62 -254 c-3 -3 -9 2 -12 12 -6 14 -5 15 5 6 7 -7 10 -15 7 -18z
m-1341 -267 c-2 -13 -4 -5 -4 17 -1 22 1 32 4 23 2 -10 2 -28 0 -40z m30 20
c-3 -7 -5 -2 -5 12 0 14 2 19 5 13 2 -7 2 -19 0 -25z m0 -43 c0 -8 -4 -12 -9
-9 -5 3 -6 10 -3 15 9 13 12 11 12 -6z m8 -64 c3 -5 2 -12 -3 -15 -5 -3 -9 1
-9 9 0 17 3 19 12 6z m-27 -46 c-3 -3 -9 2 -12 12 -6 14 -5 15 5 6 7 -7 10
-15 7 -18z m-1 -37 c-3 -8 -6 -5 -6 6 -1 11 2 17 5 13 3 -3 4 -12 1 -19z m20
-34 c0 -7 -4 -11 -8 -8 -4 2 -9 -2 -12 -8 -3 -7 -5 -4 -4 8 1 22 24 30 24 8z
m1493 6 c0 -5 -2 -10 -4 -10 -3 0 -8 5 -11 10 -3 6 -1 10 4 10 6 0 11 -4 11
-10z m-29 -43 c-10 -9 -11 -8 -5 6 3 10 9 15 12 12 3 -3 0 -11 -7 -18z m34
-17 c3 -5 1 -10 -4 -10 -6 0 -11 5 -11 10 0 6 2 10 4 10 3 0 8 -4 11 -10z
m-1494 -13 c-6 -8 -7 -18 -3 -22 4 -5 1 -5 -6 -1 -10 6 -10 11 -1 22 6 8 14
14 16 14 3 0 0 -6 -6 -13z m6 -99 c-3 -8 -6 -5 -6 6 -1 11 2 17 5 13 3 -3 4
-12 1 -19z m1560 -200 c-2 -13 -4 -5 -4 17 -1 22 1 32 4 23 2 -10 2 -28 0 -40z
m-1520 -50 c-3 -8 -6 -5 -6 6 -1 11 2 17 5 13 3 -3 4 -12 1 -19z m35 -12 c3
-15 1 -23 -6 -20 -12 5 -16 44 -5 44 4 0 9 -11 11 -24z m-19 -46 c-3 -12 -8
-19 -11 -16 -5 6 5 36 12 36 2 0 2 -9 -1 -20z m1559 -77 c-10 -28 -10 -28 -8
9 0 21 5 33 10 28 4 -4 4 -21 -2 -37z m-1545 -15 c-3 -8 -6 -5 -6 6 -1 11 2
17 5 13 3 -3 4 -12 1 -19z m13 -40 c0 -18 -2 -20 -9 -8 -6 8 -7 18 -5 22 9 14
14 9 14 -14z m1550 -32 c0 -8 -4 -17 -9 -21 -6 -3 -9 4 -8 15 1 23 17 28 17 6z
m11 -93 c-8 -15 -10 -11 -9 15 1 26 3 30 10 18 5 -10 5 -23 -1 -33z m-34 5
c-3 -8 -6 -5 -6 6 -1 11 2 17 5 13 3 -3 4 -12 1 -19z m-1480 -73 c0 -8 -4 -12
-9 -9 -5 3 -6 10 -3 15 9 13 12 11 12 -6z m33 -35 c0 -22 -3 -40 -8 -40 -4 0
-6 18 -4 40 2 22 6 40 8 40 2 0 4 -18 4 -40z m0 -72 c0 -18 -2 -20 -9 -8 -6 8
-7 18 -5 22 9 14 14 9 14 -14z m-3 -60 c-3 -8 -6 -5 -6 6 -1 11 2 17 5 13 3
-3 4 -12 1 -19z m1540 -50 c-3 -8 -6 -5 -6 6 -1 11 2 17 5 13 3 -3 4 -12 1
-19z m23 -106 c0 -2 -7 3 -15 12 -8 8 -15 30 -14 48 0 32 1 32 15 -12 7 -25
14 -46 14 -48z m-1530 8 c0 -5 -5 -10 -11 -10 -5 0 -7 5 -4 10 3 6 8 10 11 10
2 0 4 -4 4 -10z m32 -19 c-5 -3 -13 -16 -17 -29 -4 -13 -9 -22 -11 -19 -8 8
18 67 28 61 7 -4 7 -9 0 -13z m0 -123 c-9 -9 -12 -7 -12 12 0 19 3 21 12 12 9
-9 9 -15 0 -24z m15 -75 c-3 -10 -5 -4 -5 12 0 17 2 24 5 18 2 -7 2 -21 0 -30z
m80 -99 c-3 -3 -12 -4 -19 -1 -8 3 -5 6 6 6 11 1 17 -2 13 -5z m-22 -34 c3 -5
1 -10 -4 -10 -6 0 -11 5 -11 10 0 6 2 10 4 10 3 0 8 -4 11 -10z m1482 -62 c-3
-8 -6 -5 -6 6 -1 11 2 17 5 13 3 -3 4 -12 1 -19z m-1460 -13 c0 -8 -4 -12 -9
-9 -5 3 -6 10 -3 15 9 13 12 11 12 -6z m1470 -100 c0 -8 -4 -15 -9 -15 -4 0
-8 7 -8 15 0 8 4 15 8 15 5 0 9 -7 9 -15z m-1420 -57 c1 -27 -1 -29 -7 -13
-11 27 -12 45 -2 45 5 0 9 -15 9 -32z m1431 -24 c0 -18 -3 -22 -9 -13 -7 11
-9 9 -10 -6 -1 -16 -2 -17 -6 -3 -3 13 12 44 23 48 1 0 2 -12 2 -26z m-1414
-40 c3 -8 2 -12 -4 -9 -6 3 -10 10 -10 16 0 14 7 11 14 -7z m16 -79 c0 -8 -2
-15 -4 -15 -2 0 -6 7 -10 15 -3 8 -1 15 4 15 6 0 10 -7 10 -15z m30 -125 c0
-5 -2 -10 -4 -10 -3 0 -8 5 -11 10 -3 6 -1 10 4 10 6 0 11 -4 11 -10z m36 -75
c-4 -14 -2 -25 4 -25 5 0 10 -4 10 -10 0 -15 -17 -12 -23 4 -6 15 2 56 10 56
3 0 2 -11 -1 -25z m1414 -120 c0 -7 -7 -16 -16 -19 -14 -5 -15 -4 -5 8 7 8 9
21 5 27 -4 8 -3 9 4 5 7 -4 12 -13 12 -21z m-1320 -6 c0 -6 -4 -7 -10 -4 -5 3
-10 11 -10 16 0 6 5 7 10 4 6 -3 10 -11 10 -16z m1314 -71 c-3 -4 -9 -8 -15
-8 -5 0 -9 4 -9 8 0 5 7 9 15 9 8 0 12 -4 9 -9z m-4 -32 c0 -3 -4 -8 -10 -11
-5 -3 -10 -1 -10 4 0 6 5 11 10 11 6 0 10 -2 10 -4z m-1314 -25 c1 -6 0 -7 -2
-2 -3 6 -12 7 -20 4 -8 -3 -14 -1 -14 5 0 14 33 8 36 -7z m1334 5 c0 -3 -4 -8
-10 -11 -5 -3 -10 -1 -10 4 0 6 5 11 10 11 6 0 10 -2 10 -4z m42 -166 c3 -17
2 -33 -2 -35 -3 -2 -7 12 -8 31 -3 42 4 45 10 4z m-1297 -8 c-3 -3 -11 0 -18
7 -9 10 -8 11 6 5 10 -3 15 -9 12 -12z m-4 -52 c6 0 7 -5 3 -11 -8 -14 -24 8
-23 31 1 11 3 10 6 -2 2 -10 9 -18 14 -18z m1317 -61 c-3 -20 -5 -19 -9 9 -3
20 -2 29 4 23 5 -5 7 -19 5 -32z m15 -74 c-7 -21 -12 -19 -10 4 0 11 5 18 9
15 4 -3 5 -11 1 -19z m-28 -15 c3 -5 1 -10 -4 -10 -6 0 -11 5 -11 10 0 6 2 10
4 10 3 0 8 -4 11 -10z m-1135 -145 c0 -15 -6 -25 -14 -25 -11 0 -12 5 -3 25
15 31 17 31 17 0z m80 -180 c0 -8 -4 -15 -10 -15 -5 0 -7 7 -4 15 4 8 8 15 10
15 2 0 4 -7 4 -15z m1230 -155 c-6 -11 -12 -20 -14 -20 -3 0 -1 23 3 38 1 1 6
2 11 2 7 0 7 -6 0 -20z m-1096 -75 c3 -8 1 -15 -4 -15 -6 0 -10 7 -10 15 0 8
2 15 4 15 2 0 6 -7 10 -15z m81 -155 c3 -5 1 -10 -4 -10 -6 0 -11 5 -11 10 0
6 2 10 4 10 3 0 8 -4 11 -10z m1090 -42 c6 -4 2 -8 -7 -8 -10 0 -18 7 -18 17
0 9 3 12 8 7 4 -5 12 -12 17 -16z m-1001 -149 c12 -23 12 -28 2 -20 -12 11
-29 51 -21 51 2 0 10 -14 19 -31z m1173 -91 c-3 -8 -6 -5 -6 6 -1 11 2 17 5
13 3 -3 4 -12 1 -19z m-1087 -80 c0 -5 -4 -8 -10 -8 -5 0 -10 10 -10 23 0 18
2 19 10 7 5 -8 10 -18 10 -22z m1170 -42 c0 -12 6 -28 13 -35 10 -11 9 -13 -1
-7 -16 9 -43 62 -35 69 10 11 23 -4 23 -27z m-1120 -56 c0 -5 -2 -10 -4 -10
-3 0 -8 5 -11 10 -3 6 -1 10 4 10 6 0 11 -4 11 -10z m40 0 c0 -5 -5 -10 -11
-10 -5 0 -7 5 -4 10 3 6 8 10 11 10 2 0 4 -4 4 -10z m1139 -24 c9 -11 9 -16 0
-22 -8 -4 -9 -3 -5 4 4 7 2 12 -3 12 -6 0 -11 5 -11 10 0 14 5 13 19 -4z
m3324 -93 c-13 -2 -33 -2 -45 0 -13 2 -3 4 22 4 25 0 35 -2 23 -4z m-3213 -7
c0 -2 -7 -7 -16 -10 -8 -3 -12 -2 -9 4 6 10 25 14 25 6z m3330 -12 c0 -2 -11
-3 -24 -2 -14 1 -23 5 -20 9 4 7 44 0 44 -7z m-363 -10 c-3 -3 -12 -4 -19 -1
-8 3 -5 6 6 6 11 1 17 -2 13 -5z m-4167 -39 c7 -9 8 -15 2 -15 -5 0 -12 7 -16
15 -3 8 -4 15 -2 15 2 0 9 -7 16 -15z m1257 -17 c-3 -8 -6 -5 -6 6 -1 11 2 17
5 13 3 -3 4 -12 1 -19z m2649 3 c-4 -6 -14 -7 -23 -4 -15 6 -14 7 3 13 22 9
29 6 20 -9z m885 5 c-1 -3 -4 -6 -8 -7 -5 0 -14 -5 -20 -11 -7 -6 -13 -7 -13
-3 0 4 8 14 17 21 17 12 26 12 24 0z m66 -23 c0 -9 -4 -10 -10 -4 -5 5 -17 7
-26 4 -12 -4 -13 -2 -3 4 19 14 39 12 39 -4z m-3522 -51 c-3 -3 -11 0 -18 7
-9 10 -8 11 6 5 10 -3 15 -9 12 -12z m2313 -27 c-3 -3 -9 2 -12 12 -6 14 -5
15 5 6 7 -7 10 -15 7 -18z m1342 15 c0 -5 -5 -10 -11 -10 -5 0 -7 5 -4 10 3 6
8 10 11 10 2 0 4 -4 4 -10z m-3600 -16 c0 -8 -19 -13 -24 -6 -3 5 1 9 9 9 8 0
15 -2 15 -3z m-1288 -32 c-7 -2 -12 -15 -12 -28 0 -14 -4 -22 -10 -19 -5 3
-10 13 -10 21 0 20 23 43 35 36 5 -3 4 -7 -3 -10z m3278 -43 c0 -5 -4 -9 -10
-9 -5 0 -10 7 -10 16 0 8 5 12 10 9 6 -3 10 -10 10 -16z m30 11 c0 -5 -2 -10
-4 -10 -3 0 -8 5 -11 10 -3 6 -1 10 4 10 6 0 11 -4 11 -10z m-1923 -13 c3 -5
1 -7 -5 -3 -6 3 -13 2 -17 -4 -3 -5 -11 -10 -16 -10 -6 0 -7 5 -3 12 5 8 2 9
-10 5 -9 -4 -15 -3 -12 2 8 12 55 11 63 -2z m1697 -52 c3 -8 2 -14 -2 -14 -22
4 -32 -2 -26 -13 5 -9 2 -8 -9 1 -16 13 -16 15 5 26 13 7 24 13 24 14 1 1 4
-6 8 -14z m2001 -15 c3 -5 1 -10 -4 -10 -6 0 -11 5 -11 10 0 6 2 10 4 10 3 0
8 -4 11 -10z m-2070 -10 c-3 -5 -12 -10 -18 -10 -7 0 -6 4 3 10 19 12 23 12
15 0z m-1455 -60 c8 -5 11 -10 5 -10 -5 0 -17 5 -25 10 -8 5 -10 10 -5 10 6 0
17 -5 25 -10z m90 -35 c0 -3 -7 -5 -16 -5 -8 0 -12 4 -9 10 3 5 -7 13 -22 16
-24 6 -25 8 -8 14 18 7 55 -17 55 -35z m1240 35 c0 -5 -4 -10 -9 -10 -6 0 -13
5 -16 10 -3 6 1 10 9 10 9 0 16 -4 16 -10z m-136 -15 c-7 -16 -24 -21 -24 -6
0 8 7 13 27 20 1 1 0 -6 -3 -14z m2436 1 c0 -3 -4 -8 -10 -11 -5 -3 -10 -1
-10 4 0 6 5 11 10 11 6 0 10 -2 10 -4z m20 -16 c0 -5 -5 -10 -11 -10 -5 0 -7
5 -4 10 3 6 8 10 11 10 2 0 4 -4 4 -10z m-2403 -6 c-3 -3 -12 -4 -19 -1 -8 3
-5 6 6 6 11 1 17 -2 13 -5z m-947 -54 c-12 -8 -13 -10 -1 -10 8 0 12 -2 9 -5
-7 -7 -38 5 -38 14 0 4 10 8 22 8 18 2 20 0 8 -7z m535 0 c4 -6 -9 -10 -32 -9
-38 1 -38 1 -8 9 17 4 31 8 32 9 1 0 5 -3 8 -9z m75 -9 c0 -13 -36 -20 -51
-10 -10 6 -6 9 14 9 19 0 26 4 21 12 -4 7 -3 8 4 4 7 -4 12 -11 12 -15z m57
13 c-3 -3 -12 -4 -19 -1 -8 3 -5 6 6 6 11 1 17 -2 13 -5z m-322 -23 c42 -7 35
-8 -41 -7 -51 1 -87 4 -80 8 14 9 55 9 121 -1z m-152 -8 c-7 -2 -21 -2 -30 0
-10 3 -4 5 12 5 17 0 24 -2 18 -5z m-1886 -9 c-3 -3 -12 -4 -19 -1 -8 3 -5 6
6 6 11 1 17 -2 13 -5z m-13 -70 c10 -25 -1 -29 -14 -5 -6 12 -7 21 -1 21 5 0
12 -7 15 -16z m27 -84 c5 0 9 -7 9 -15 0 -8 -4 -15 -9 -15 -12 0 -21 27 -20
58 l2 27 4 -27 c2 -16 9 -28 14 -28z m5254 21 c3 -5 2 -12 -3 -15 -5 -3 -9 1
-9 9 0 17 3 19 12 6z m45 -92 c0 -5 -5 -9 -12 -9 -6 0 -8 3 -5 7 4 3 1 13 -6
22 -11 14 -10 14 6 2 9 -7 17 -17 17 -22z m-5259 -2 c-13 -13 -26 -3 -16 12 3
6 11 8 17 5 6 -4 6 -10 -1 -17z m5329 -51 c0 -3 -4 -8 -10 -11 -5 -3 -10 -1
-10 4 0 6 5 11 10 11 6 0 10 -2 10 -4z m20 -69 c0 -10 -4 -16 -10 -12 -5 3 -7
12 -3 20 3 8 0 15 -7 15 -6 0 -8 5 -4 11 8 14 24 -8 24 -34z m-4861 21 l116
-2 -145 -6 c-80 -3 -147 -5 -149 -3 -2 2 7 3 20 4 l24 1 -25 9 c-21 7 -20 8 9
4 18 -3 86 -6 150 -7z m148 -4 c-3 -3 -12 -4 -19 -1 -8 3 -5 6 6 6 11 1 17 -2
13 -5z m281 -1 c-49 -2 -127 -2 -175 0 -49 1 -9 3 87 3 96 0 136 -2 88 -3z
m122 3 c0 -2 -7 -6 -15 -10 -8 -3 -15 -1 -15 4 0 6 7 10 15 10 8 0 15 -2 15
-4z m156 -14 c-66 -1 -123 1 -127 5 -5 4 49 6 119 3 l127 -5 -119 -3z m547 11
c-7 -2 -19 -2 -25 0 -7 3 -2 5 12 5 14 0 19 -2 13 -5z m188 -11 c-74 -1 -138
1 -142 5 -5 4 56 6 134 3 l142 -5 -134 -3z m1259 8 c-215 -3 -294 -6 -191 -8
96 -1 172 -5 168 -8 -3 -4 -154 -3 -334 2 -317 9 -322 9 -163 14 91 3 327 6
525 6 l360 -1 -365 -5z m1003 3 c-46 -2 -120 -2 -165 0 -46 1 -9 3 82 3 91 0
128 -2 83 -3z m-2803 -7 c0 -2 -9 -6 -20 -9 -11 -3 -20 -1 -20 4 0 5 9 9 20 9
11 0 20 -2 20 -4z m707 -2 c-3 -3 -12 -4 -19 -1 -8 3 -5 6 6 6 11 1 17 -2 13
-5z m1116 -11 c-7 -2 -19 -2 -25 0 -7 3 -2 5 12 5 14 0 19 -2 13 -5z m275 0
c-49 -2 -127 -2 -175 0 -49 1 -9 3 87 3 96 0 136 -2 88 -3z m325 0 c-34 -2
-93 -2 -130 0 -37 2 -9 3 62 3 72 0 102 -1 68 -3z m-1316 -9 c-3 -3 -12 -4
-19 -1 -8 3 -5 6 6 6 11 1 17 -2 13 -5z m2056 -91 c-24 -2 -62 -2 -85 0 -24 2
-5 4 42 4 47 0 66 -2 43 -4z m-1020 -10 c-57 -2 -149 -2 -205 0 -57 1 -11 3
102 3 113 0 159 -2 103 -3z m444 -9 c-3 -3 -12 -4 -19 -1 -8 3 -5 6 6 6 11 1
17 -2 13 -5z m616 -1 c-29 -2 -78 -2 -110 0 -32 2 -8 3 52 3 61 0 87 -1 58 -3z
m-3020 -10 c-7 -2 -19 -2 -25 0 -7 3 -2 5 12 5 14 0 19 -2 13 -5z m168 -11
c-7 -2 -18 1 -23 6 -8 8 -4 9 13 5 13 -4 18 -8 10 -11z m-112 -6 c-2 -2 -15
-7 -29 -10 l-25 -7 25 15 c21 12 42 14 29 2z m65 5 c4 -5 -3 -7 -14 -4 -23 6
-26 13 -6 13 8 0 17 -4 20 -9z m200 1 c2 -4 -5 -9 -17 -9 -17 -2 -19 0 -7 7
18 12 18 12 24 2z m53 -7 c0 -8 -4 -12 -9 -9 -5 3 -6 10 -3 15 9 13 12 11 12
-6z m-477 -10 c0 -8 -2 -15 -4 -15 -2 0 -6 7 -10 15 -3 8 -1 15 4 15 6 0 10
-7 10 -15z m495 -47 c7 -5 7 -8 -1 -8 -19 0 -47 27 -51 50 -3 22 -2 21 19 -6
12 -16 27 -32 33 -36z m-830 -7 c-9 -8 -36 -10 -30 -2 2 4 11 8 20 8 8 0 13
-3 10 -6z m74 -17 c3 -3 -49 2 -57 5 -2 0 0 6 3 11 5 9 36 0 54 -16z m18 20
c-3 -3 -12 -4 -19 -1 -8 3 -5 6 6 6 11 1 17 -2 13 -5z m43 -10 c0 -2 -7 -4
-15 -4 -8 0 -15 4 -15 10 0 5 7 7 15 4 8 -4 15 -8 15 -10z m748 -2 c-6 -7 -14
-9 -17 -5 -4 4 -10 11 -14 14 -5 4 3 6 16 5 20 -1 23 -4 15 -14z m-993 -2 c-3
-5 -13 -10 -21 -10 -8 0 -12 5 -9 10 3 6 13 10 21 10 8 0 12 -4 9 -10z m4475
-9 c0 -5 -8 -15 -17 -22 -16 -12 -17 -12 -6 2 7 9 10 19 6 22 -3 4 -1 7 5 7 7
0 12 -4 12 -9z m-4350 -5 c0 -7 -40 -14 -44 -7 -3 4 6 8 20 9 13 1 24 0 24 -2z
m-60 -14 c0 -5 -12 -7 -27 -7 -16 1 -36 -2 -45 -7 -9 -4 -19 -4 -23 1 -3 5 5
11 17 13 50 7 78 7 78 0z m933 0 c3 8 6 8 6 2 1 -6 -7 -18 -16 -25 -10 -7 -15
-9 -11 -5 4 5 2 16 -5 25 -10 14 -10 14 5 3 13 -10 17 -10 21 0z m-1399 -52
c-21 -8 -37 -3 -29 10 3 4 15 6 27 2 21 -5 21 -6 2 -12z m49 13 c-9 -3 -10
-10 -3 -24 8 -14 7 -19 -3 -19 -8 0 -13 9 -11 23 3 29 2 27 17 26 9 0 9 -2 0
-6z m110 0 c-7 -2 -19 -2 -25 0 -7 3 -2 5 12 5 14 0 19 -2 13 -5z m57 -13 c0
-5 -10 -10 -22 -9 -22 0 -22 1 -3 9 11 5 21 9 23 9 1 1 2 -3 2 -9z m43 3 c-7
-2 -19 -2 -25 0 -7 3 -2 5 12 5 14 0 19 -2 13 -5z m-93 -7 c0 -3 -4 -8 -10
-11 -5 -3 -10 -1 -10 4 0 6 5 11 10 11 6 0 10 -2 10 -4z m-155 -25 c-5 -9 -45
-22 -45 -16 0 2 7 11 16 19 15 16 39 13 29 -3z m4970 -90 c3 -5 2 -12 -3 -15
-5 -3 -9 1 -9 9 0 17 3 19 12 6z m-3582 -96 c-6 -17 -23 -20 -23 -5 0 6 5 10
11 10 5 0 7 5 3 12 -4 7 -3 8 4 4 6 -4 9 -13 5 -21z m3633 -17 c4 -7 3 -8 -4
-4 -7 4 -12 2 -12 -5 0 -7 -3 -10 -6 -6 -6 5 3 27 11 27 2 0 7 -5 11 -12z
m-3653 -28 c-3 -12 0 -20 6 -20 7 0 10 4 7 8 -2 4 -1 14 4 21 5 9 7 3 7 -16
-2 -27 -26 -44 -28 -19 0 6 -4 2 -9 -9 -12 -28 -12 -2 0 29 11 31 20 35 13 6z
m20 -65 c-3 -9 -8 -14 -10 -11 -3 3 -2 9 2 15 9 16 15 13 8 -4z m-43 -14 c0
-11 -4 -22 -8 -25 -4 -2 -8 6 -8 20 0 13 4 24 8 24 4 0 8 -9 8 -19z m37 -33
c-3 -8 -6 -5 -6 6 -1 11 2 17 5 13 3 -3 4 -12 1 -19z m3700 -80 c-3 -8 -6 -5
-6 6 -1 11 2 17 5 13 3 -3 4 -12 1 -19z m38 2 c3 -5 1 -10 -4 -10 -6 0 -11 5
-11 10 0 6 2 10 4 10 3 0 8 -4 11 -10z m-3808 -32 c-3 -8 -6 -5 -6 6 -1 11 2
17 5 13 3 -3 4 -12 1 -19z m-23 -6 c3 -5 -1 -9 -9 -9 -8 0 -12 4 -9 9 3 4 7 8
9 8 2 0 6 -4 9 -8z m13 -37 c0 -8 -4 -12 -9 -9 -5 3 -6 10 -3 15 9 13 12 11
12 -6z m3870 -67 c-3 -8 -6 -5 -6 6 -1 11 2 17 5 13 3 -3 4 -12 1 -19z m20 0
c-3 -8 -6 -5 -6 6 -1 11 2 17 5 13 3 -3 4 -12 1 -19z m9 -105 c-11 -11 -17 4
-9 23 7 18 8 18 11 1 2 -10 1 -21 -2 -24z m-4018 -38 c-6 -14 -13 -23 -15 -21
-5 5 15 46 22 46 3 0 -1 -11 -7 -25z m4089 -167 c-3 -7 -5 -2 -5 12 0 14 2 19
5 13 2 -7 2 -19 0 -25z m50 -370 c-3 -8 -6 -5 -6 6 -1 11 2 17 5 13 3 -3 4
-12 1 -19z m0 -60 c-3 -8 -6 -5 -6 6 -1 11 2 17 5 13 3 -3 4 -12 1 -19z m20
-40 c-3 -8 -6 -5 -6 6 -1 11 2 17 5 13 3 -3 4 -12 1 -19z m-8 -226 c-1 -45 -3
-81 -6 -79 -2 2 -5 52 -6 111 -1 65 1 96 5 79 5 -15 8 -65 7 -111z m28 -24
c-2 -24 -4 -5 -4 42 0 47 2 66 4 43 2 -24 2 -62 0 -85z m-20 -220 c-3 -8 -6
-5 -6 6 -1 11 2 17 5 13 3 -3 4 -12 1 -19z m-12 -158 c3 -5 1 -10 -4 -10 -6 0
-11 5 -11 10 0 6 2 10 4 10 3 0 8 -4 11 -10z m-9506 -2180 c93 -47 119 -117
82 -219 -11 -32 -21 -61 -21 -65 0 -3 138 -6 308 -6 278 0 311 -2 348 -19 68
-31 89 -70 92 -176 3 -111 -17 -157 -88 -192 -44 -23 -50 -23 -427 -23 l-383
0 -34 -67 c-19 -38 -50 -97 -70 -131 -20 -35 -36 -65 -36 -67 0 -2 27 5 60 16
128 40 219 52 340 46 267 -13 456 -120 551 -311 106 -215 86 -484 -52 -691
-149 -222 -373 -298 -859 -290 -340 5 -398 17 -464 98 -30 37 -31 43 -31 132
0 101 10 125 68 168 29 22 13 22 392 13 132 -3 268 -1 301 4 135 21 240 80
281 160 47 92 39 189 -20 257 -51 58 -105 77 -227 80 -163 3 -319 -33 -529
-124 -130 -56 -189 -63 -250 -31 -62 32 -103 94 -108 160 -4 50 2 66 121 313
l124 260 -146 5 c-158 5 -190 15 -231 65 -32 42 -46 123 -32 192 13 69 34 100
87 130 37 21 50 23 249 23 l210 0 48 119 c52 127 79 163 143 187 51 19 151 11
203 -16z m-4413 -48 c70 -36 104 -88 104 -158 0 -20 -22 -104 -49 -187 -88
-269 -143 -449 -139 -452 2 -2 31 9 64 24 33 16 80 34 104 41 93 25 227 -14
288 -85 67 -75 99 -252 87 -475 -7 -139 6 -283 30 -329 32 -63 99 -46 222 58
88 73 102 81 153 81 137 0 232 -164 171 -295 -45 -97 -197 -254 -312 -323
-122 -73 -283 -85 -410 -30 -58 24 -142 111 -170 173 -52 116 -61 185 -68 471
-6 253 -7 273 -26 294 -17 18 -28 21 -66 18 -63 -6 -113 -40 -164 -109 -57
-78 -93 -181 -177 -509 -45 -177 -78 -288 -93 -311 -33 -51 -85 -73 -172 -74
-63 0 -76 3 -115 30 -52 36 -88 102 -88 161 0 105 309 1259 461 1720 68 208
97 253 177 279 59 19 137 13 188 -13z m7024 0 c60 -32 80 -86 80 -219 l0 -113
83 0 c146 0 207 -59 207 -200 0 -149 -62 -210 -212 -210 l-78 0 0 -213 0 -213
58 -24 c93 -38 195 -91 220 -114 56 -50 68 -135 31 -216 -26 -58 -54 -87 -96
-101 -31 -10 -42 -7 -120 30 -47 23 -86 41 -88 41 -1 0 -5 -69 -8 -152 -3 -99
-11 -171 -21 -205 -34 -109 -119 -194 -229 -229 -67 -21 -275 -30 -348 -15
-136 28 -254 117 -308 231 -37 77 -56 206 -47 315 11 143 54 252 134 338 92
98 182 136 345 144 l107 6 0 188 0 189 -213 0 c-204 0 -216 1 -257 23 -63 33
-90 88 -90 181 0 92 27 151 85 183 38 22 51 23 258 23 l217 0 0 113 c0 134 20
190 80 219 48 25 163 24 210 0z m-5266 -26 c18 -8 43 -24 55 -37 41 -44 44
-84 22 -297 -32 -306 -36 -395 -35 -717 0 -297 10 -479 40 -729 19 -155 13
-205 -27 -250 -35 -40 -89 -56 -171 -51 -112 7 -179 72 -198 192 -73 452 -76
1196 -6 1669 20 137 55 192 141 222 44 15 140 14 179 -2z m4254 -10 c18 -9 42
-31 53 -49 23 -37 22 -104 -5 -375 -39 -384 -39 -812 0 -1202 27 -267 28 -330
7 -370 -28 -53 -71 -73 -161 -73 -115 0 -184 42 -211 126 -51 164 -86 888 -62
1278 18 281 47 522 69 572 21 48 71 94 110 103 15 3 32 8 37 10 23 9 133 -5
163 -20z m-7517 -21 c77 -27 122 -89 134 -181 15 -112 -56 -214 -246 -354
-159 -118 -216 -136 -328 -104 -55 15 -65 21 -88 61 -20 35 -24 53 -20 89 2
25 13 54 22 64 18 20 15 20 -269 20 -183 0 -304 4 -333 11 -81 21 -133 98
-133 199 0 93 50 174 121 197 23 7 213 11 565 12 454 1 538 -1 575 -14z m4479
-117 c132 -67 126 -315 -9 -377 -32 -14 -80 -16 -406 -13 -203 2 -384 7 -401
13 -39 12 -88 64 -103 108 -24 72 -7 186 36 233 10 11 36 29 58 39 36 17 72
19 410 19 365 0 371 0 415 -22z m-5394 -927 c58 -27 112 -77 123 -117 12 -43
0 -86 -44 -168 -45 -82 -53 -140 -27 -198 26 -59 82 -84 224 -99 119 -13 434
-6 627 15 205 22 255 -5 282 -150 20 -107 -20 -203 -101 -244 -91 -46 -314
-72 -640 -73 -231 -1 -329 10 -455 50 -226 72 -355 225 -380 454 -16 146 54
337 175 472 69 78 134 95 216 58z m4702 -6 c82 -35 109 -90 87 -176 -53 -200
-13 -294 141 -330 42 -9 356 -13 449 -5 115 10 183 -73 173 -213 -10 -132 -71
-192 -208 -206 -36 -3 -82 -8 -103 -11 -21 -3 -100 -5 -175 -6 -262 0 -417 54
-548 194 -110 116 -152 263 -125 438 26 166 78 281 142 313 43 21 118 22 167
2z"/>
<path d="M56640 43261 c-48 -10 -72 -24 -108 -65 -35 -40 -47 -87 -39 -147 9
-72 64 -109 160 -109 85 0 91 12 95 181 4 130 3 139 -15 139 -10 0 -27 2 -38
4 -11 2 -36 1 -55 -3z"/>
<path d="M61580 50079 c0 -5 5 -7 10 -4 6 3 10 8 10 11 0 2 -4 4 -10 4 -5 0
-10 -5 -10 -11z"/>
<path d="M62988 49662 c-4 -15 -1 -18 14 -14 10 2 17 9 15 15 -6 19 -24 18
-29 -1z"/>
<path d="M57976 49285 c4 -8 8 -15 10 -15 2 0 4 7 4 15 0 8 -4 15 -10 15 -5 0
-7 -7 -4 -15z"/>
<path d="M59796 48192 c-3 -5 1 -9 9 -9 8 0 12 4 9 9 -3 4 -7 8 -9 8 -2 0 -6
-4 -9 -8z"/>
<path d="M59719 48038 c-5 -17 -3 -58 3 -58 5 0 7 14 6 30 -2 25 -6 37 -9 28z"/>
<path d="M59744 48029 c-3 -6 -1 -16 4 -21 8 -8 11 -5 9 11 -1 24 -3 25 -13
10z"/>
<path d="M59415 47219 c-4 -6 -5 -12 -2 -15 2 -3 7 2 10 11 7 17 1 20 -8 4z"/>
<path d="M59427 46955 c-4 -8 -2 -17 3 -20 6 -4 10 3 10 14 0 25 -6 27 -13 6z"/>
<path d="M59390 46926 c0 -2 8 -10 18 -17 15 -13 16 -12 3 4 -13 16 -21 21
-21 13z"/>
<path d="M59454 46875 c0 -17 3 -21 11 -15 7 6 16 6 21 2 5 -4 0 3 -10 16 -11
12 -20 22 -21 22 0 0 -1 -11 -1 -25z"/>
<path d="M59493 46815 c0 -8 4 -12 9 -9 5 3 6 10 3 15 -9 13 -12 11 -12 -6z"/>
<path d="M59563 46806 c0 -6 8 -13 17 -13 9 -1 17 4 17 11 0 6 -8 13 -17 13
-9 1 -17 -4 -17 -11z"/>
<path d="M59535 46771 c-3 -5 -2 -12 3 -15 5 -3 9 1 9 9 0 17 -3 19 -12 6z"/>
<path d="M63893 46765 c0 -8 4 -12 9 -9 5 3 6 10 3 15 -9 13 -12 11 -12 -6z"/>
<path d="M59560 46731 c0 -6 4 -13 10 -16 6 -3 7 1 4 9 -7 18 -14 21 -14 7z"/>
<path d="M63857 46694 c-11 -14 -16 -28 -13 -31 3 -4 6 -1 6 5 0 7 5 12 10 12
13 0 13 -27 0 -33 -6 -3 -5 -4 2 -3 8 2 13 18 14 39 1 20 1 37 0 37 -1 0 -9
-12 -19 -26z"/>
<path d="M59650 46639 c-11 -19 -10 -20 10 -9 11 6 18 15 15 21 -9 13 -13 11
-25 -12z"/>
<path d="M59682 46562 c-10 -3 -7 -8 8 -19 12 -8 24 -12 27 -9 4 3 0 6 -8 6
-11 0 -12 2 -1 9 11 7 11 9 0 13 -7 3 -19 3 -26 0z"/>
<path d="M59746 46537 c3 -10 9 -15 12 -12 3 3 0 11 -7 18 -10 9 -11 8 -5 -6z"/>
<path d="M59711 46506 c-9 -10 -7 -17 6 -27 16 -13 17 -12 4 4 -12 16 -9 22
12 18 5 -1 6 3 2 9 -8 13 -10 13 -24 -4z"/>
<path d="M63765 46430 c-3 -5 1 -10 10 -10 9 0 13 5 10 10 -3 6 -8 10 -10 10
-2 0 -7 -4 -10 -10z"/>
<path d="M59791 46406 c-7 -8 -8 -17 -3 -20 6 -3 12 3 15 14 6 24 4 25 -12 6z"/>
<path d="M59795 46312 c15 -30 35 -36 35 -9 0 7 -4 6 -10 -3 -5 -8 -10 -10
-10 -4 0 5 -7 19 -15 30 -14 16 -14 15 0 -14z"/>
<path d="M63696 46321 c-15 -17 -15 -19 -1 -25 10 -3 14 -2 10 5 -4 5 -1 16 5
24 18 22 6 18 -14 -4z"/>
<path d="M63686 46262 c-3 -5 1 -9 9 -9 8 0 12 4 9 9 -3 4 -7 8 -9 8 -2 0 -6
-4 -9 -8z"/>
<path d="M63662 46220 c-23 -21 -29 -40 -13 -40 10 0 26 19 34 43 8 22 6 21
-21 -3z"/>
<path d="M63600 46121 c0 -6 4 -12 8 -15 5 -3 9 1 9 9 0 8 -4 15 -9 15 -4 0
-8 -4 -8 -9z"/>
<path d="M63545 46020 c3 -5 8 -10 11 -10 2 0 4 5 4 10 0 6 -5 10 -11 10 -5 0
-7 -4 -4 -10z"/>
<path d="M63446 45997 c3 -10 9 -15 12 -12 3 3 0 11 -7 18 -10 9 -11 8 -5 -6z"/>
<path d="M63503 45965 c0 -8 4 -12 9 -9 5 3 6 10 3 15 -9 13 -12 11 -12 -6z"/>
<path d="M63467 45939 c-4 -15 -2 -18 7 -10 7 6 17 7 22 3 4 -4 2 1 -5 11 -17
21 -18 21 -24 -4z"/>
<path d="M63446 45898 c3 -5 10 -6 15 -3 13 9 11 12 -6 12 -8 0 -12 -4 -9 -9z"/>
<path d="M63405 45849 c-4 -6 -5 -12 -2 -15 2 -3 7 2 10 11 7 17 1 20 -8 4z"/>
<path d="M63366 45842 c-2 -4 2 -16 10 -27 8 -10 14 -14 14 -8 0 7 -5 15 -10
18 -6 4 -8 11 -5 16 4 5 4 9 1 9 -3 0 -7 -3 -10 -8z"/>
<path d="M63305 45741 c4 -7 2 -16 -5 -21 -9 -5 -9 -9 -1 -14 16 -10 26 23 11
37 -10 9 -11 9 -5 -2z"/>
<path d="M59991 45684 c0 -11 3 -14 6 -6 3 7 2 16 -1 19 -3 4 -6 -2 -5 -13z"/>
<path d="M59950 45686 c0 -2 8 -10 18 -17 15 -13 16 -12 3 4 -13 16 -21 21
-21 13z"/>
<path d="M63245 45659 c-4 -6 -5 -12 -2 -15 2 -3 7 2 10 11 7 17 1 20 -8 4z"/>
<path d="M59970 45615 c0 -2 6 -8 13 -14 10 -8 14 -7 14 2 0 8 -6 14 -14 14
-7 0 -13 -1 -13 -2z"/>
<path d="M63140 45589 c0 -5 5 -7 10 -4 6 3 10 8 10 11 0 2 -4 4 -10 4 -5 0
-10 -5 -10 -11z"/>
<path d="M60040 45500 c-9 -6 -10 -10 -3 -10 6 0 15 5 18 10 8 12 4 12 -15 0z"/>
<path d="M63056 45464 c-3 -8 -11 -12 -17 -8 -7 4 -9 3 -5 -4 3 -5 0 -13 -6
-15 -9 -4 -9 -6 -1 -6 13 -1 43 26 43 40 0 14 -7 11 -14 -7z"/>
<path d="M62963 45445 c0 -6 6 -12 12 -12 6 0 12 6 12 12 0 6 -6 12 -12 12 -6
0 -12 -6 -12 -12z"/>
<path d="M60050 45446 c0 -2 8 -10 18 -17 15 -13 16 -12 3 4 -13 16 -21 21
-21 13z"/>
<path d="M62980 45389 c0 -5 -5 -7 -10 -4 -6 4 -9 1 -8 -6 2 -7 -3 -13 -9 -14
-13 0 -18 -12 -8 -17 7 -5 45 31 45 42 0 5 -2 10 -5 10 -3 0 -5 -5 -5 -11z"/>
<path d="M62907 45363 c3 -7 6 -13 8 -13 2 0 5 6 8 13 3 8 -1 14 -8 14 -7 0
-11 -6 -8 -14z"/>
<path d="M62876 45292 c-3 -5 1 -9 9 -9 8 0 12 4 9 9 -3 4 -7 8 -9 8 -2 0 -6
-4 -9 -8z"/>
<path d="M62810 45285 c0 -2 6 -8 13 -14 10 -8 14 -7 14 2 0 8 -6 14 -14 14
-7 0 -13 -1 -13 -2z"/>
<path d="M62770 45181 c0 -7 -5 -9 -12 -5 -7 5 -8 3 -3 -5 5 -9 10 -10 18 -2
6 6 8 14 4 18 -4 3 -7 1 -7 -6z"/>
<path d="M62656 45129 c4 -8 30 -6 38 2 3 3 -5 5 -19 5 -13 0 -22 -3 -19 -7z"/>
<path d="M62671 45103 c-1 -17 16 -25 25 -12 4 7 3 9 -4 5 -5 -3 -13 0 -15 6
-4 9 -6 10 -6 1z"/>
<path d="M60208 45042 c4 -10 7 -12 10 -4 2 7 9 9 15 5 7 -3 8 -2 4 2 -14 16
-36 14 -29 -3z"/>
<path d="M62575 45001 c6 -11 -35 -42 -47 -35 -4 3 -5 -3 -1 -12 5 -13 3 -15
-7 -9 -9 6 -11 4 -5 -5 6 -9 4 -12 -6 -8 -10 4 -15 -1 -16 -15 -2 -16 8 -10
47 28 42 41 54 65 34 65 -3 0 -3 -4 1 -9z"/>
<path d="M60206 44962 c-2 -4 -1 -14 4 -22 7 -11 9 -9 7 8 -1 24 -3 26 -11 14z"/>
<path d="M62415 44880 c-10 -11 -15 -23 -12 -27 4 -3 7 -1 7 6 0 8 6 11 16 7
9 -4 13 -2 8 5 -4 6 0 15 7 20 8 5 9 9 3 9 -6 0 -19 -9 -29 -20z"/>
<path d="M62329 44804 c-8 -9 -5 -11 11 -7 25 7 35 20 14 20 -8 0 -19 -6 -25
-13z"/>
<path d="M60250 44776 c0 -2 8 -10 18 -17 15 -13 16 -12 3 4 -13 16 -21 21
-21 13z"/>
<path d="M62320 44771 c0 -6 4 -13 10 -16 6 -3 7 1 4 9 -7 18 -14 21 -14 7z"/>
<path d="M60296 44738 c3 -5 10 -6 15 -3 13 9 11 12 -6 12 -8 0 -12 -4 -9 -9z"/>
<path d="M62255 44720 c-10 -11 -15 -23 -12 -27 4 -3 7 -1 7 6 0 8 6 11 16 7
9 -4 13 -2 8 5 -4 6 0 15 7 20 8 5 9 9 3 9 -6 0 -19 -9 -29 -20z"/>
<path d="M60282 44687 c-8 -10 -6 -13 7 -13 11 0 17 6 14 13 -3 7 -6 13 -8 13
-1 0 -7 -6 -13 -13z"/>
<path d="M60293 44625 c-3 -9 -3 -18 -1 -21 3 -3 8 4 11 16 6 23 -1 27 -10 5z"/>
<path d="M62147 44566 c-4 -10 -1 -13 8 -9 8 3 12 9 9 14 -7 12 -11 11 -17 -5z"/>
<path d="M62123 44541 c0 -11 5 -18 9 -15 4 3 5 11 1 19 -7 21 -12 19 -10 -4z"/>
<path d="M62097 44521 c-4 -17 -3 -21 5 -13 5 5 8 16 6 23 -3 8 -7 3 -11 -10z"/>
<path d="M62006 44492 c-6 -10 3 -23 29 -42 20 -14 20 -14 2 7 -13 15 -15 22
-6 25 9 3 8 6 -4 11 -9 3 -18 3 -21 -1z"/>
<path d="M62050 44496 c0 -2 7 -7 16 -10 8 -3 12 -2 9 4 -6 10 -25 14 -25 6z"/>
<path d="M61935 44401 c2 -16 25 -23 25 -8 0 4 0 11 0 15 0 5 -6 9 -14 9 -7 0
-13 -7 -11 -16z"/>
<path d="M61867 44327 c-3 -8 4 -14 16 -15 16 -1 18 1 8 7 -11 7 -11 9 0 14
10 4 10 6 -2 6 -9 1 -19 -5 -22 -12z"/>
<path d="M60355 44311 c-6 -11 9 -23 19 -14 9 9 7 23 -3 23 -6 0 -12 -4 -16
-9z"/>
<path d="M61886 44283 c-6 -14 -5 -15 5 -6 7 7 10 15 7 18 -3 3 -9 -2 -12 -12z"/>
<path d="M61683 44087 c-3 -7 -3 -9 2 -5 4 4 14 3 22 -3 7 -6 13 -8 13 -3 0 5
4 4 8 -3 6 -9 11 -7 20 7 7 12 8 20 2 20 -5 0 -10 -5 -10 -11 0 -6 -5 -7 -12
-2 -21 12 -37 12 -45 0z"/>
<path d="M16021 43874 c0 -11 3 -14 6 -6 3 7 2 16 -1 19 -3 4 -6 -2 -5 -13z"/>
<path d="M15997 43804 c-9 -25 -15 -50 -12 -54 3 -5 1 -10 -4 -12 -11 -4 -25
-49 -14 -46 4 2 9 -1 10 -7 1 -5 -6 -8 -15 -7 -9 2 -14 1 -10 -3 4 -4 2 -17
-4 -29 -9 -18 -9 -19 3 -11 8 6 7 2 -3 -7 -10 -9 -18 -20 -17 -25 1 -4 -3 -20
-9 -36 -7 -15 -14 -38 -16 -50 -2 -12 -7 -29 -11 -38 -3 -10 -2 -20 4 -24 6
-3 11 -11 11 -17 0 -6 -7 -5 -17 3 -15 13 -16 12 -11 -8 4 -13 2 -26 -4 -29
-5 -3 -7 -13 -4 -21 3 -8 2 -12 -2 -9 -5 3 -20 -45 -35 -107 -24 -103 -25
-113 -10 -129 10 -11 12 -18 5 -18 -7 0 -12 5 -12 10 0 6 -5 10 -11 10 -6 0
-8 -9 -4 -21 4 -12 3 -24 -3 -28 -5 -3 -12 -26 -15 -51 -4 -25 -10 -56 -13
-69 -6 -19 -4 -22 7 -16 12 8 12 6 0 -8 -17 -22 -41 -178 -29 -194 6 -7 4 -14
-3 -18 -8 -5 -10 -28 -6 -71 3 -34 2 -64 -3 -66 -14 -5 -17 -439 -4 -515 4
-18 9 -31 13 -29 4 3 7 -4 8 -14 1 -11 -2 -22 -8 -25 -11 -7 -12 -45 -1 -45 4
0 7 -18 6 -39 0 -22 3 -61 8 -88 4 -26 10 -64 12 -83 2 -19 4 -39 5 -43 0 -5
7 -5 14 -1 9 5 9 4 0 -6 -11 -12 -9 -66 4 -100 5 -13 8 -32 14 -90 1 -8 6 -21
11 -27 6 -7 8 -19 5 -28 -4 -8 -2 -17 4 -20 6 -4 8 39 6 117 -2 68 0 146 4
173 4 29 6 -40 5 -163 0 -116 3 -212 7 -212 5 0 6 -4 3 -8 -3 -5 3 -42 13 -83
l18 -74 0 84 c0 47 -3 78 -8 70 -4 -7 -5 -18 -2 -24 4 -5 3 -8 0 -5 -3 3 -7
126 -9 272 -2 147 -1 264 2 262 2 -3 7 -112 10 -242 l6 -237 2 285 c1 157 4
357 6 445 3 103 2 144 -4 115 l-8 -45 4 50 c3 28 5 69 5 93 0 23 4 42 9 42 6
0 9 32 8 73 l-1 72 -7 -65 -7 -65 -1 61 c-1 33 1 64 5 68 4 3 9 14 10 24 4 18
5 27 29 377 14 205 27 374 39 505 3 39 2 48 -4 30 -5 -15 -9 -18 -10 -9 -1 9
5 32 13 50 13 31 23 107 31 229 2 25 6 62 10 82 11 57 2 64 -18 12z m-10 -200
c-3 -3 -12 -4 -19 -1 -8 3 -5 6 6 6 11 1 17 -2 13 -5z m-50 -46 c-3 -8 -6 -5
-6 6 -1 11 2 17 5 13 3 -3 4 -12 1 -19z m40 -30 c-3 -7 -5 -2 -5 12 0 14 2 19
5 13 2 -7 2 -19 0 -25z m-30 -30 c-3 -8 -6 -5 -6 6 -1 11 2 17 5 13 3 -3 4
-12 1 -19z m-27 -28 c0 -5 -5 -10 -11 -10 -5 0 -7 5 -4 10 3 6 8 10 11 10 2 0
4 -4 4 -10z m17 -32 c-3 -8 -6 -5 -6 6 -1 11 2 17 5 13 3 -3 4 -12 1 -19z m10
-80 c-3 -8 -6 -5 -6 6 -1 11 2 17 5 13 3 -3 4 -12 1 -19z m-10 -280 c-2 -13
-4 -5 -4 17 -1 22 1 32 4 23 2 -10 2 -28 0 -40z m-117 -19 c0 -5 4 -7 10 -4 6
3 7 -1 4 -10 -5 -12 -9 -13 -20 -4 -16 13 -18 29 -4 29 6 0 10 -5 10 -11z m8
-64 c-3 -3 -9 2 -12 12 -6 14 -5 15 5 6 7 -7 10 -15 7 -18z m-24 -21 c3 -8 2
-12 -4 -9 -6 3 -10 10 -10 16 0 14 7 11 14 -7z m33 -16 c-3 -8 -6 -5 -6 6 -1
11 2 17 5 13 3 -3 4 -12 1 -19z m-90 -830 c-3 -7 -5 -2 -5 12 0 14 2 19 5 13
2 -7 2 -19 0 -25z m100 -50 c-3 -8 -6 -5 -6 6 -1 11 2 17 5 13 3 -3 4 -12 1
-19z m20 -185 c-3 -10 -5 -2 -5 17 0 19 2 27 5 18 2 -10 2 -26 0 -35z"/>
<path d="M61536 43823 c2 -6 -2 -14 -9 -17 -8 -3 -8 -5 -1 -5 6 -1 18 7 25 16
8 9 9 14 2 10 -6 -4 -13 -4 -16 0 -2 5 -2 3 -1 -4z"/>
<path d="M61466 43721 c-4 -5 -2 -12 3 -15 5 -4 12 -2 15 3 4 5 2 12 -3 15 -5
4 -12 2 -15 -3z"/>
<path d="M61330 43501 c0 -7 -4 -10 -9 -6 -5 3 -12 1 -15 -4 -4 -5 -2 -12 3
-15 11 -7 36 22 27 31 -3 3 -6 1 -6 -6z"/>
<path d="M61270 43431 c0 -6 4 -13 10 -16 6 -3 7 1 4 9 -7 18 -14 21 -14 7z"/>
<path d="M61220 43379 c0 -5 5 -7 10 -4 6 3 10 8 10 11 0 2 -4 4 -10 4 -5 0
-10 -5 -10 -11z"/>
<path d="M61134 43288 c-4 -7 -4 -10 1 -6 4 4 15 2 24 -5 14 -11 14 -10 2 6
-16 20 -18 21 -27 5z"/>
<path d="M61179 43263 c-13 -16 -12 -17 4 -4 16 13 21 21 13 21 -2 0 -10 -8
-17 -17z"/>
<path d="M61065 43128 c21 -12 23 -12 28 -1 1 3 -9 8 -23 9 -23 4 -24 3 -5 -8z"/>
<path d="M61062 43104 c10 -10 20 -16 22 -13 3 3 -5 11 -17 18 -21 13 -21 12
-5 -5z"/>
<path d="M60970 42970 c-9 -6 -10 -10 -3 -10 6 0 15 5 18 10 8 12 4 12 -15 0z"/>
<path d="M60997 42949 c7 -7 15 -10 18 -7 3 3 -2 9 -12 12 -14 6 -15 5 -6 -5z"/>
<path d="M60976 42922 c-3 -5 1 -9 9 -9 8 0 12 4 9 9 -3 4 -7 8 -9 8 -2 0 -6
-4 -9 -8z"/>
<path d="M60966 42878 c3 -5 10 -6 15 -3 13 9 11 12 -6 12 -8 0 -12 -4 -9 -9z"/>
<path d="M60911 42744 c0 -11 3 -14 6 -6 3 7 2 16 -1 19 -3 4 -6 -2 -5 -13z"/>
<path d="M60840 42621 c0 -6 4 -12 8 -15 5 -3 9 1 9 9 0 8 -4 15 -9 15 -4 0
-8 -4 -8 -9z"/>
<path d="M60819 42568 c-6 -21 -5 -37 2 -32 5 3 7 9 4 14 -3 4 1 11 7 13 10 4
10 6 1 6 -7 1 -13 0 -14 -1z"/>
<path d="M60216 42547 c3 -10 9 -15 12 -12 3 3 0 11 -7 18 -10 9 -11 8 -5 -6z"/>
<path d="M60730 42471 c0 -6 4 -13 10 -16 6 -3 7 1 4 9 -7 18 -14 21 -14 7z"/>
<path d="M60767 42457 c-3 -8 1 -14 8 -14 7 0 11 6 8 14 -3 7 -6 13 -8 13 -2
0 -5 -6 -8 -13z"/>
<path d="M60670 42336 c0 -2 7 -7 16 -10 8 -3 12 -2 9 4 -6 10 -25 14 -25 6z"/>
<path d="M60140 42315 c-7 -9 -11 -17 -9 -20 3 -2 10 5 17 15 14 24 10 26 -8
5z"/>
<path d="M60640 42301 c0 -6 4 -13 10 -16 6 -3 7 1 4 9 -7 18 -14 21 -14 7z"/>
<path d="M60694 42268 l-19 -23 23 19 c21 18 27 26 19 26 -2 0 -12 -10 -23
-22z"/>
<path d="M60666 42223 c-6 -14 -5 -15 5 -6 7 7 10 15 7 18 -3 3 -9 -2 -12 -12z"/>
<path d="M60113 42201 c0 -11 5 -18 9 -15 4 3 5 11 1 19 -7 21 -12 19 -10 -4z"/>
<path d="M60581 41973 c-10 -26 -10 -27 4 -9 8 11 15 23 15 28 0 15 -7 8 -19
-19z"/>
<path d="M60576 41923 c-6 -14 -5 -15 5 -6 7 7 10 15 7 18 -3 3 -9 -2 -12 -12z"/>
<path d="M60511 41694 c0 -11 3 -14 6 -6 3 7 2 16 -1 19 -3 4 -6 -2 -5 -13z"/>
<path d="M59887 41686 c-4 -11 -1 -13 10 -9 12 5 14 3 8 -7 -5 -9 -4 -11 4 -6
9 6 9 11 0 22 -14 17 -16 17 -22 0z"/>
<path d="M59856 41632 c-3 -5 1 -9 9 -9 8 0 12 4 9 9 -3 4 -7 8 -9 8 -2 0 -6
-4 -9 -8z"/>
<path d="M60506 41593 c-6 -14 -5 -15 5 -6 7 7 10 15 7 18 -3 3 -9 -2 -12 -12z"/>
<path d="M60486 41497 c3 -10 9 -15 12 -12 3 3 0 11 -7 18 -10 9 -11 8 -5 -6z"/>
<path d="M60506 41298 c3 -5 10 -6 15 -3 13 9 11 12 -6 12 -8 0 -12 -4 -9 -9z"/>
<path d="M60510 41210 c0 -5 5 -10 11 -10 5 0 7 5 4 10 -3 6 -8 10 -11 10 -2
0 -4 -4 -4 -10z"/>
<path d="M62901 41171 c-10 -7 -7 -9 12 -8 14 1 23 5 20 10 -6 9 -15 9 -32 -2z"/>
<path d="M62800 41150 c8 -5 20 -10 25 -10 6 0 3 5 -5 10 -8 5 -19 10 -25 10
-5 0 -3 -5 5 -10z"/>
<path d="M63362 41118 c2 -8 -4 -12 -14 -10 -22 3 -24 -4 -4 -11 18 -7 42 18
26 28 -6 4 -9 1 -8 -7z"/>
<path d="M63400 41099 c-13 -9 -13 -10 0 -6 8 2 24 -3 35 -12 20 -16 20 -16 1
7 -11 12 -20 22 -20 22 -1 0 -8 -5 -16 -11z"/>
<path d="M60580 41079 c0 -5 -6 -7 -12 -3 -7 4 -9 3 -5 -1 13 -15 36 -14 30 1
-6 17 -13 18 -13 3z"/>
<path d="M62353 41045 c-3 -9 -3 -18 -1 -21 3 -3 8 4 11 16 6 23 -1 27 -10 5z"/>
<path d="M60590 41040 c0 -6 7 -10 15 -10 8 0 15 2 15 4 0 2 -7 6 -15 10 -8 3
-15 1 -15 -4z"/>
<path d="M60566 41003 c-6 -14 -5 -15 5 -6 7 7 10 15 7 18 -3 3 -9 -2 -12 -12z"/>
<path d="M62246 41011 c-4 -5 -2 -12 3 -15 5 -4 12 -2 15 3 4 5 2 12 -3 15 -5
4 -12 2 -15 -3z"/>
<path d="M62289 41018 c-5 -18 -6 -38 -1 -34 7 8 12 36 6 36 -2 0 -4 -1 -5 -2z"/>
<path d="M62368 40993 c7 -3 16 -2 19 1 4 3 -2 6 -13 5 -11 0 -14 -3 -6 -6z"/>
<path d="M60654 40958 c-4 -7 -4 -10 1 -6 4 4 14 0 21 -10 7 -9 14 -15 17 -12
2 3 -4 13 -13 23 -14 15 -20 16 -26 5z"/>
<path d="M62058 40948 c-9 -5 -6 -7 9 -5 12 2 25 6 28 8 8 9 -23 6 -37 -3z"/>
<path d="M63646 40947 c3 -10 9 -15 12 -12 3 3 0 11 -7 18 -10 9 -11 8 -5 -6z"/>
<path d="M62132 40931 c-11 -7 -10 -9 3 -14 9 -4 14 -3 10 2 -3 5 1 12 7 14 7
3 9 6 3 6 -5 0 -16 -3 -23 -8z"/>
<path d="M63626 40912 c-3 -5 1 -9 9 -9 8 0 12 4 9 9 -3 4 -7 8 -9 8 -2 0 -6
-4 -9 -8z"/>
<path d="M61866 40882 c-3 -5 1 -9 9 -9 8 0 12 4 9 9 -3 4 -7 8 -9 8 -2 0 -6
-4 -9 -8z"/>
<path d="M63715 40879 c-4 -6 -5 -12 -2 -15 2 -3 7 2 10 11 7 17 1 20 -8 4z"/>
<path d="M63753 40865 c0 -8 4 -12 9 -9 5 3 6 10 3 15 -9 13 -12 11 -12 -6z"/>
<path d="M60770 40863 c7 -3 5 -9 -5 -17 -15 -10 -14 -12 3 -12 21 0 24 28 3
32 -7 2 -7 0 -1 -3z"/>
<path d="M61805 40851 c-3 -5 -2 -12 3 -15 5 -3 9 1 9 9 0 17 -3 19 -12 6z"/>
<path d="M61900 40839 c0 -5 5 -7 10 -4 6 3 10 8 10 11 0 2 -4 4 -10 4 -5 0
-10 -5 -10 -11z"/>
<path d="M63689 40833 c-13 -16 -12 -17 4 -4 16 13 21 21 13 21 -2 0 -10 -8
-17 -17z"/>
<path d="M61645 40810 c-4 -6 -10 -8 -15 -5 -5 3 -11 1 -14 -4 -8 -12 14 -8
39 7 11 6 15 12 8 12 -6 0 -15 -5 -18 -10z"/>
<path d="M63787 40809 c7 -7 15 -10 18 -7 3 3 -2 9 -12 12 -14 6 -15 5 -6 -5z"/>
<path d="M63836 40747 c3 -10 9 -15 12 -12 3 3 0 11 -7 18 -10 9 -11 8 -5 -6z"/>
<path d="M63846 40691 c-3 -5 2 -15 12 -22 15 -12 16 -12 5 2 -7 9 -10 19 -6
22 3 4 4 7 0 7 -3 0 -8 -4 -11 -9z"/>
<path d="M63886 40692 c-2 -4 4 -8 14 -8 10 0 16 4 14 8 -3 4 -9 8 -14 8 -5 0
-11 -4 -14 -8z"/>
<path d="M63934 40606 c1 -8 5 -18 8 -22 4 -3 5 1 4 10 -1 8 -5 18 -8 22 -4 3
-5 -1 -4 -10z"/>
<path d="M64033 40449 c9 -6 15 -14 13 -18 -3 -4 1 -8 9 -8 10 0 12 4 5 12 -5
7 -8 14 -5 16 2 3 -6 6 -18 6 -20 2 -20 1 -4 -8z"/>
<path d="M64089 40378 c-5 -18 -6 -38 -1 -34 7 8 12 36 6 36 -2 0 -4 -1 -5 -2z"/>
<path d="M64110 40343 c0 -6 8 -17 18 -24 16 -13 16 -13 2 6 -8 11 -16 22 -17
24 -2 2 -3 0 -3 -6z"/>
<path d="M64185 40041 c-6 -11 13 -26 22 -17 4 3 1 6 -6 6 -7 0 -9 5 -6 10 3
6 4 10 1 10 -3 0 -7 -4 -11 -9z"/>
<path d="M64430 39106 c0 -2 7 -9 15 -16 13 -11 14 -10 9 4 -5 14 -24 23 -24
12z"/>
<path d="M13955 35145 c-163 -23 -329 -63 -515 -125 -170 -56 -523 -202 -685
-283 -106 -52 -385 -227 -527 -328 -600 -430 -1002 -1028 -1222 -1820 -112
-405 -181 -821 -251 -1517 -14 -136 -34 -326 -45 -422 -11 -96 -23 -197 -26
-225 -13 -119 -57 -427 -80 -558 -79 -454 -172 -767 -434 -1463 -71 -188 -150
-404 -175 -480 -164 -497 -267 -1033 -306 -1583 -15 -213 -6 -675 16 -831 45
-323 144 -606 284 -815 28 -41 51 -79 51 -83 0 -4 -34 -52 -74 -106 -85 -112
-179 -289 -225 -418 -83 -239 -181 -823 -227 -1353 -19 -218 -28 -1055 -14
-1295 25 -437 30 -472 84 -564 38 -65 127 -141 194 -166 47 -18 236 -50 502
-85 19 -2 100 -13 180 -24 324 -45 1091 -122 1445 -146 50 -3 113 -8 140 -10
89 -8 574 -35 805 -45 846 -38 1988 -33 2879 10 112 6 206 9 208 7 2 -3 -22
-92 -52 -198 -211 -727 -422 -1725 -621 -2939 -57 -348 -61 -454 -20 -593 66
-221 197 -381 390 -476 169 -83 -66 -75 2378 -78 l2176 -3 6 37 c3 21 188
1595 411 3498 223 1903 407 3472 410 3488 4 26 3 27 -35 27 -58 0 -383 -45
-558 -78 -84 -16 -152 -27 -152 -26 0 31 -158 747 -216 978 -113 451 -176 650
-260 821 -82 166 -172 293 -304 425 -239 238 -535 392 -870 449 -69 12 -394
64 -723 115 -329 51 -600 95 -602 98 -2 2 13 45 35 95 148 344 243 750 305
1298 47 416 117 1329 147 1910 16 314 16 1203 0 1450 -29 436 -68 783 -132
1160 -233 1379 -696 2372 -1328 2848 -120 90 -216 141 -304 162 -84 20 -256
19 -403 -2 -163 -22 -342 -22 -424 1 -35 9 -101 40 -146 67 -148 88 -293 145
-465 181 -127 26 -478 34 -625 13z m1001 -2100 c425 -74 769 -360 1068 -888
112 -197 235 -456 255 -538 60 -239 50 -572 -27 -946 l-28 -131 83 -15 c154
-29 240 -87 292 -196 23 -51 26 -67 25 -171 0 -115 -9 -164 -56 -310 -22 -72
-167 -448 -200 -523 -60 -134 -183 -175 -346 -115 -29 11 -55 18 -58 16 -2 -3
-46 -110 -98 -239 -182 -455 -346 -774 -539 -1046 l-44 -62 9 -68 c65 -487
158 -940 240 -1172 69 -195 182 -390 297 -514 l63 -66 -94 -98 c-288 -302
-512 -480 -763 -603 -114 -56 -303 -121 -419 -145 -448 -91 -918 22 -1416 339
-74 47 -140 86 -147 86 -19 0 -17 9 21 123 119 357 180 817 202 1513 l6 210
-81 68 c-481 398 -869 1126 -1097 2059 -33 138 -45 167 -153 387 -135 272
-226 495 -278 678 -31 112 -36 142 -37 247 -1 149 12 182 88 226 72 41 150 41
222 0 61 -36 131 -111 184 -199 38 -64 39 -65 49 -40 5 14 30 70 55 125 402
876 1242 1691 2001 1941 102 34 197 56 315 75 69 11 324 6 406 -8z"/>
<path d="M61428 34450 c-354 -64 -626 -377 -678 -780 -25 -196 21 -414 131
-607 16 -29 27 -53 24 -53 -3 0 2 -8 11 -17 21 -23 114 -156 114 -163 0 -3
-28 -13 -63 -23 -265 -78 -564 -231 -813 -418 -135 -100 -410 -377 -512 -514
-160 -216 -293 -465 -377 -705 -38 -112 -159 -527 -299 -1035 -48 -170 -106
-382 -131 -470 -25 -88 -65 -236 -89 -330 -24 -93 -78 -298 -120 -455 -490
-1853 -875 -3559 -1070 -4750 -55 -336 -100 -659 -93 -666 2 -3 29 10 58 29
315 200 871 502 1320 715 248 118 887 373 1193 477 189 64 398 116 494 122
l82 6 0 31 c0 17 -11 243 -26 501 l-26 470 -31 50 c-127 206 -168 278 -232
410 -148 306 -214 487 -391 1082 l-24 82 -43 -16 c-25 -10 -76 -16 -127 -17
-73 -1 -91 2 -130 24 -66 37 -98 90 -135 226 -18 66 -49 171 -68 234 -92 302
-119 533 -79 667 48 158 161 238 355 250 l88 6 -5 26 c-12 62 -26 191 -32 296
l-7 113 59 17 c288 84 1013 218 1534 284 380 49 562 64 782 65 167 1 209 4
213 15 3 7 11 56 17 107 23 185 -15 435 -141 914 -39 145 -69 266 -66 268 2 2
6 -7 10 -20 4 -13 65 -151 135 -308 256 -571 330 -786 330 -964 l0 -64 73 -6
c39 -3 140 -10 222 -16 242 -18 307 -36 643 -176 l209 -87 51 -311 c56 -338
125 -817 167 -1156 l27 -216 -43 -124 c-217 -638 -518 -1200 -862 -1608 l-69
-82 19 -431 c17 -384 21 -433 36 -444 10 -7 122 -52 250 -100 304 -115 900
-344 902 -347 9 -11 25 -959 25 -1478 0 -1355 -65 -2454 -200 -3380 -16 -113
-29 -209 -29 -215 1 -22 24 54 125 405 517 1797 759 2926 911 4243 l8 68 280
-140 c154 -77 363 -187 465 -245 101 -58 186 -106 187 -106 1 0 0 12 -2 28 -3
15 -28 176 -55 357 -234 1537 -587 3376 -915 4761 -304 1284 -567 2158 -772
2569 -64 127 -98 180 -162 251 -25 28 -76 99 -114 157 -132 208 -346 447 -537
600 -112 91 -312 223 -430 286 -204 108 -465 202 -692 248 l-134 27 52 89 c67
112 109 213 141 336 21 78 25 120 26 226 0 147 -2 165 -38 290 -85 292 -314
529 -580 600 -70 19 -259 28 -327 15z"/>
<path d="M22120 30994 c-288 -25 -448 -51 -632 -104 -370 -106 -696 -313 -905
-576 -140 -174 -257 -397 -287 -544 -52 -262 -69 -820 -35 -1200 35 -403 128
-678 252 -745 l35 -18 12 -111 c136 -1273 379 -2413 677 -3171 122 -310 325
-670 437 -773 73 -67 159 -103 274 -113 171 -16 1208 -23 1438 -10 356 20 657
60 768 101 83 32 158 91 210 168 39 56 58 102 107 258 130 409 127 396 154
794 30 443 34 503 156 2060 54 701 104 1300 110 1330 6 30 35 156 64 280 182
773 188 889 55 1165 -79 165 -179 280 -331 380 -150 100 -275 120 -562 90
-196 -20 -270 -15 -353 24 -76 36 -150 117 -228 247 -115 191 -178 256 -321
327 -194 96 -422 135 -820 141 -126 2 -250 2 -275 0z m2220 -2286 c201 -259
368 -476 372 -482 11 -19 -76 -760 -138 -1166 -91 -604 -183 -1039 -281 -1324
-60 -177 -108 -271 -168 -332 -44 -45 -57 -52 -101 -58 -61 -8 -177 7 -236 31
-78 30 -122 64 -274 213 -139 137 -158 151 -245 193 -140 67 -214 82 -399 81
-124 0 -172 -4 -242 -22 -190 -47 -303 -110 -460 -259 -62 -58 -145 -127 -185
-153 -120 -79 -354 -151 -438 -136 -51 10 -127 83 -181 176 -189 322 -379
1129 -508 2148 -15 127 -19 185 -12 187 6 1 65 8 132 14 740 67 1627 418 2459
973 145 97 413 294 485 357 19 16 40 30 45 30 6 0 174 -212 375 -471z"/>
<path d="M53992 28839 c-529 -62 -1020 -413 -1262 -903 -24 -48 -52 -92 -64
-99 -15 -9 -106 -12 -321 -12 -335 -1 -390 -9 -517 -77 -88 -47 -220 -175
-289 -281 -180 -278 -170 -574 36 -1017 154 -331 170 -379 163 -492 -3 -58
-11 -81 -55 -166 -66 -127 -83 -186 -83 -292 0 -116 28 -220 94 -352 49 -97
52 -108 36 -113 -10 -3 -32 -21 -49 -40 -71 -81 -66 -287 15 -575 137 -493
419 -976 648 -1111 20 -12 36 -23 36 -25 0 -1 16 -88 35 -191 97 -530 215
-910 350 -1123 l23 -37 -8 -324 c-16 -579 -22 -734 -29 -740 -9 -9 -275 -47
-456 -64 -416 -40 -818 -120 -1269 -251 -103 -30 -190 -53 -193 -50 -3 2 1
132 8 288 56 1306 -179 2595 -666 3651 -169 365 -347 619 -616 882 -166 162
-263 239 -454 367 -396 263 -841 429 -1325 494 -171 23 -501 23 -670 0 -481
-65 -898 -242 -1260 -533 -193 -154 -433 -422 -596 -663 -127 -188 -195 -309
-387 -695 -326 -655 -360 -735 -491 -1155 -91 -296 -146 -454 -279 -815 -263
-715 -396 -1273 -536 -2250 -74 -516 -131 -954 -131 -1009 0 -117 66 -250 160
-325 66 -52 145 -80 255 -92 49 -5 108 -12 130 -14 85 -11 641 -65 855 -84
487 -43 983 -71 1273 -71 l177 0 -5 68 c-3 37 -12 177 -20 311 l-14 243 -59
92 c-219 340 -377 713 -548 1290 -35 121 -66 221 -68 223 -2 2 -29 -3 -62 -12
-183 -48 -307 14 -355 177 -12 40 -41 138 -65 218 -131 439 -152 648 -80 806
55 121 180 191 353 198 67 3 63 -15 44 171 -6 66 -12 154 -14 195 l-2 75 85
28 c157 52 533 158 755 212 482 118 840 175 1103 175 86 0 132 4 132 11 0 5
47 133 104 282 173 451 211 603 211 845 0 100 2 136 9 120 5 -13 48 -108 94
-213 181 -407 206 -464 258 -598 87 -223 128 -386 127 -509 l-1 -48 46 -1 c26
0 58 -2 72 -4 14 -3 61 -10 105 -16 113 -16 296 -63 422 -108 154 -55 270
-105 598 -261 160 -76 306 -144 326 -153 36 -15 36 -16 43 -87 10 -100 5 -314
-10 -448 -17 -145 -37 -254 -80 -427 -122 -486 -274 -904 -484 -1330 -172
-347 -334 -602 -535 -843 l-87 -103 20 -430 c11 -245 23 -434 29 -440 5 -5 99
-44 209 -85 568 -215 708 -270 910 -350 894 -355 1535 -676 2144 -1075 l165
-108 81 -123 c234 -353 474 -856 710 -1483 l83 -220 2620 -3 c2491 -2 2621 -1
2621 15 1 17 1 17 11 1 9 -17 73 -18 1117 -18 957 0 1116 2 1172 16 221 52
408 236 465 458 22 88 20 224 -5 336 -201 902 -526 1834 -904 2588 -72 143
-128 247 -291 537 -71 126 -221 350 -320 477 -28 37 -99 107 -158 156 -637
537 -1492 966 -2486 1249 -275 77 -482 125 -816 188 -267 50 -588 114 -591
118 -1 1 -25 162 -53 357 -29 195 -59 403 -68 461 l-15 106 85 85 c131 132
254 294 340 448 81 147 194 467 267 760 18 69 36 141 41 162 7 28 19 42 53 62
132 77 292 306 410 588 190 452 261 950 157 1096 -25 35 -97 66 -139 60 l-28
-4 61 181 c116 343 129 457 121 1030 -4 278 -3 479 4 545 6 58 13 162 17 231
7 156 -10 242 -72 367 -82 163 -215 291 -385 371 -116 54 -186 71 -316 78 -92
5 -127 2 -213 -17 -138 -30 -155 -23 -206 87 -119 253 -220 398 -401 574 -149
143 -261 212 -447 274 -224 74 -461 100 -685 74z"/>
<path d="M41405 24124 c-43 -33 -185 -104 -295 -148 -294 -116 -660 -191
-1425 -291 -689 -90 -998 -154 -1315 -272 -557 -207 -981 -588 -1165 -1046
-64 -159 -86 -264 -92 -437 -9 -259 13 -333 177 -595 110 -176 160 -284 167
-363 8 -91 -14 -148 -102 -257 -65 -82 -28 -194 135 -410 257 -338 362 -539
406 -772 19 -105 37 -143 28 -63 -11 111 -26 209 -59 390 -90 491 -75 641 81
809 121 131 320 221 614 280 192 38 365 56 940 101 431 34 640 62 851 115 204
52 414 138 547 224 73 47 103 51 138 16 77 -77 170 -413 233 -840 11 -77 36
-246 55 -375 56 -377 66 -575 39 -782 l-6 -48 77 0 c72 0 76 1 76 23 0 69 33
436 46 517 27 161 72 280 147 390 17 25 99 115 182 200 83 85 176 187 207 225
331 416 433 953 303 1596 -99 484 -278 959 -473 1250 -64 95 -152 196 -137
158 8 -20 -40 -70 -110 -114 -113 -73 -389 -201 -595 -278 -98 -36 -259 -82
-265 -75 -2 2 50 48 116 103 144 119 309 287 368 373 80 118 130 247 144 370
6 46 -4 52 -38 26z"/>
<path d="M31050 23403 c-36 -2 -137 -10 -225 -19 -1353 -133 -2222 -825 -2470
-1969 -86 -397 -95 -900 -24 -1375 169 -1131 767 -1957 1676 -2313 208 -82
442 -140 698 -173 159 -21 553 -24 700 -5 585 73 1060 293 1454 676 517 502
827 1207 928 2115 21 193 24 786 5 985 -61 622 -212 1059 -480 1388 -255 313
-642 524 -1141 621 -314 62 -732 87 -1121 69z"/>
<path d="M24540 23307 c0 -6 241 -1504 535 -3327 294 -1823 554 -3434 578
-3580 l42 -265 469 -3 468 -2 -88 -62 c-117 -82 -288 -254 -337 -338 -21 -36
-48 -99 -61 -140 -13 -41 -65 -169 -116 -285 -322 -731 -627 -1543 -881 -2345
-135 -424 -134 -422 -133 -615 1 -143 4 -170 27 -250 118 -397 439 -669 842
-715 59 -6 1129 -10 3083 -10 1645 0 2992 -2 2992 -4 0 -2 -57 -201 -127 -443
l-127 -438 0 -140 c0 -125 3 -148 27 -220 38 -113 90 -197 178 -285 88 -88
156 -131 276 -174 l88 -31 3308 -3 3307 -2 0 25 c0 49 -51 403 -106 729 -90
537 -238 1320 -400 2106 l-66 325 -2 210 c-2 183 -6 226 -29 335 -32 152 -81
318 -180 608 -58 168 -87 276 -131 480 -31 146 -56 287 -56 320 0 31 -12 239
-26 462 -24 368 -26 421 -15 580 13 193 30 287 90 477 49 157 104 365 130 498
24 120 101 577 101 601 0 14 -8 15 -67 9 -269 -28 -781 -157 -1056 -266 -294
-117 -454 -226 -553 -376 -117 -178 -186 -368 -200 -553 l-7 -90 -128 -40
c-71 -22 -188 -58 -260 -81 -72 -22 -133 -38 -136 -35 -3 3 -11 0 -17 -7 -7
-7 -460 -149 -1007 -316 -779 -238 -1004 -310 -1039 -334 -61 -41 -210 -193
-293 -297 -148 -184 -328 -477 -479 -777 l-72 -143 -136 -59 c-237 -104 -460
-170 -705 -207 -163 -25 -541 -25 -740 -1 -77 10 -266 33 -420 52 -995 122
-1581 247 -2085 447 -239 94 -615 293 -694 366 -79 74 -87 198 -17 283 22 27
102 74 320 190 160 85 291 157 291 160 0 3 -24 11 -52 18 -344 87 -1025 301
-1275 402 -443 178 -716 367 -808 557 -219 455 -212 808 23 1103 121 153 321
300 574 423 139 67 148 73 143 96 -3 14 -12 97 -19 185 -58 635 -5 1702 130
2660 80 568 229 1288 350 1697 3 11 -3 19 -18 23 -13 4 -124 45 -248 92 -860
327 -1887 597 -2762 728 -193 29 -198 29 -198 12z"/>
<path d="M40700 17194 c0 -16 -7 -274 -16 -574 -10 -358 -14 -782 -12 -1235 2
-379 -1 -726 -5 -770 -18 -187 -30 -278 -53 -420 -29 -173 -31 -183 -130 -610
-85 -371 -131 -592 -180 -865 -31 -177 -51 -248 -219 -780 -325 -1034 -565
-1818 -668 -2187 l-35 -123 2552 0 c2513 0 2552 0 2634 20 257 62 449 244 532
505 15 48 24 106 27 187 8 172 -16 1716 -32 2028 -3 52 -7 151 -10 220 -31
695 -104 1102 -270 1511 -143 352 -364 669 -590 849 -35 28 -77 64 -95 80 -97
91 -836 385 -1730 688 -146 50 -283 97 -305 105 l-40 14 -7 111 c-21 375 -177
673 -466 892 -123 93 -707 355 -841 376 -40 6 -41 6 -41 -22z"/>
</g>
</svg>
